<svg width="150" height="150" viewBox="0 0 150 150" fill="none" xmlns="http://www.w3.org/2000/svg">
<path d="M117.886 45.5015C117.886 21 97.289 1.3156 72.4844 2.85779C51.0484 4.19216 33.6828 21.7922 32.5906 43.2672C31.9828 55.2 36.2703 66.125 43.6172 74.2172C49.8969 81.1359 53.5375 90.0437 53.5375 99.3922V100.761C53.5375 102.728 55.1297 104.322 57.0937 104.322H93.325C95.289 104.322 96.8812 102.728 96.8812 100.761V99.4015C96.8812 89.9687 100.662 81.0562 106.961 74.0437C113.752 66.4781 117.886 56.475 117.886 45.5015Z" fill="#39D1DC"/>
<path d="M86.0953 138.681H64.3219C60.3937 138.681 57.2094 135.492 57.2094 131.559V104.32H93.2078V131.559C93.2078 135.492 90.025 138.681 86.0953 138.681Z" fill="#827F7E"/>
<path d="M92.7781 131.098H57.6406C55.3953 131.098 53.575 129.275 53.575 127.027C53.575 124.778 55.3953 122.956 57.6406 122.956H92.7781C95.0234 122.956 96.8437 124.778 96.8437 127.027C96.8437 129.275 95.0234 131.098 92.7781 131.098Z" fill="#A3A09D"/>
<path d="M92.7781 117.709H57.6406C55.3953 117.709 53.575 115.886 53.575 113.639C53.575 111.391 55.3953 109.569 57.6406 109.569H92.7781C95.0234 109.569 96.8437 111.391 96.8437 113.639C96.8437 115.886 95.0234 117.709 92.7781 117.709Z" fill="#A3A09D"/>
<path d="M77.9297 147.159H72.489C69.5765 147.159 67.2172 144.797 67.2172 141.881V138.681H83.2015V141.881C83.2015 144.797 80.8406 147.159 77.9297 147.159Z" fill="#A3A09D"/>
<path d="M75.2093 0.115601C74.2515 0.115601 73.2797 0.145288 72.3187 0.206226C61.3015 0.890601 50.8953 5.66248 43.0203 13.6406C35.1468 21.6187 30.5 32.0922 29.939 43.1312C29.3172 55.3265 33.4781 67.0015 41.6515 76.0062C47.6047 82.5625 50.8828 90.8687 50.8828 99.3906V100.761C50.8828 103.284 52.3922 105.462 54.5547 106.436V107.655C52.3781 108.777 50.9203 111.044 50.9203 113.639C50.9203 116.233 52.3781 118.5 54.5547 119.622V121.044C52.3765 122.164 50.9203 124.433 50.9203 127.027C50.9203 129.666 52.4297 131.969 54.6718 133.069C55.3984 137.747 59.45 141.339 64.3234 141.339H64.5625V141.881C64.5625 146.258 68.1187 149.817 72.489 149.817H77.9312C82.3015 149.817 85.8578 146.258 85.8578 141.881V141.339H86.0968C90.9687 141.339 95.0203 137.747 95.7484 133.069C97.989 131.969 99.5 129.666 99.5 127.027C99.5 124.434 98.0422 122.166 95.864 121.044V119.622C98.0422 118.5 99.5 116.233 99.5 113.639C99.5 111.044 98.0422 108.777 95.864 107.655V106.436C98.0265 105.462 99.5359 103.284 99.5359 100.761V99.4C99.5359 90.9453 102.875 82.5703 108.936 75.8187C116.42 67.4844 120.541 56.7172 120.541 45.5031C120.541 20.4765 100.205 0.115601 75.2093 0.115601ZM106.961 74.0422C100.662 81.0562 96.8812 89.9687 96.8812 99.4V100.761C96.8812 102.727 95.289 104.32 93.325 104.32H93.2078V109.591C95.2515 109.806 96.8437 111.536 96.8437 113.639C96.8437 115.741 95.2515 117.47 93.2078 117.686V122.978C95.2515 123.194 96.8437 124.923 96.8437 127.027C96.8437 129.13 95.2515 130.859 93.2078 131.075V131.559C93.2078 135.492 90.0234 138.681 86.0953 138.681H83.2015V141.881C83.2015 144.797 80.8406 147.159 77.9297 147.159H72.489C69.5765 147.159 67.2172 144.797 67.2172 141.881V138.681H64.3218C60.3937 138.681 57.2093 135.492 57.2093 131.559V131.075C55.1672 130.859 53.575 129.13 53.575 127.027C53.575 124.923 55.1672 123.194 57.2093 122.978V117.686C55.1672 117.47 53.575 115.741 53.575 113.639C53.575 111.536 55.1672 109.806 57.2093 109.591V104.32H57.0937C55.1297 104.32 53.5375 102.727 53.5375 100.761V99.3906C53.5375 90.0437 49.8953 81.1344 43.6172 74.2172C36.2703 66.125 31.9828 55.1984 32.5906 43.2672C33.6828 21.7922 51.0484 4.19216 72.4843 2.85779C73.4 2.79998 74.3062 2.77341 75.2093 2.77341C98.7765 2.77341 117.884 21.9047 117.884 45.5015C117.886 56.475 113.752 66.4781 106.961 74.0422Z" fill="#422618"/>
<path d="M58.3453 19.0468C54.1062 18.6187 50.2281 21.5921 49.4203 25.6343C45.314 26.9546 42.7797 31.8437 44.2375 36.0671C41.5719 38.7124 41.15 43.414 43.3578 46.5046C40.9844 49.8484 41.6672 54.8546 44.764 57.4468C44.0672 61.9499 46.8281 66.2109 51.3656 66.9031C51.5203 67.0234 51.6765 67.1406 51.8344 67.2578C52.9031 69.864 55.9109 71.5343 58.7922 70.9156C62.2734 76.1234 70.6578 73.9203 71.2937 67.764V21.1562C71.2937 12.5593 60.8484 12.7093 58.3453 19.0468Z" fill="#FEDBB0"/>
<path d="M57.3625 58.7531C56.0625 58.6218 54.8937 57.9937 54.0656 56.9828C53.239 55.9703 52.8562 54.6968 52.9859 53.3968C53.0656 52.5906 52.4797 51.8734 51.675 51.7921C50.8703 51.714 50.1531 52.3 50.0734 53.1046C49.9094 54.7406 50.2562 56.35 51.0547 57.7484C50.1859 59.2671 48.825 60.4187 47.1625 61.0218C46.4765 61.2718 45.7703 61.414 45.0609 61.4562C45.3828 62.4734 45.8922 63.4109 46.5625 64.214C47.1 64.1109 47.6359 63.9687 48.1609 63.7781C50.1578 63.0515 51.8453 61.7593 53.0484 60.0609C54.2 60.9609 55.5812 61.5218 57.0703 61.6703C57.1203 61.675 57.1703 61.6765 57.2187 61.6765C57.9609 61.6765 58.5969 61.1125 58.6734 60.3562C58.7547 59.5515 58.1672 58.8328 57.3625 58.7531Z" fill="#FCC171"/>
<path d="M71.2046 45.3766C71.2281 45.4344 71.2609 45.4875 71.2921 45.5422C71.2921 44.2859 71.2921 43.0266 71.2921 41.7766C67.8734 39.75 63.5296 39.8641 60.214 42.1281C59.5343 40.7797 58.4593 39.6141 57.0453 38.8266C56.339 38.4328 55.4468 38.6875 55.0546 39.3953C54.6609 40.1031 54.9156 40.9953 55.6218 41.3891C57.9765 42.7016 58.8265 45.6859 57.5171 48.0437C57.1234 48.7516 57.3781 49.6437 58.0843 50.0375C58.3093 50.1641 58.5531 50.2234 58.7953 50.2234C59.3093 50.2234 59.8078 49.9516 60.075 49.4687C60.8265 48.1172 61.1312 46.6375 61.0421 45.1984C63.9265 42.5641 68.3968 42.6281 71.2046 45.3766Z" fill="#FCC171"/>
<path d="M55.3328 29.689C56.1531 28.2672 56.6313 26.6594 56.7094 24.9984C56.8078 22.9344 56.2844 20.9828 55.3141 19.3187C54.3563 19.5906 53.4609 20.0359 52.6672 20.6156C53.4328 21.8469 53.8578 23.3047 53.7844 24.8609C53.7109 26.4015 53.1594 27.8797 52.2141 29.0859C50.4953 29.1062 48.7719 29.6875 47.3453 30.8656C46.7219 31.3797 46.6328 32.3031 47.1469 32.9281C47.6594 33.5531 48.5828 33.6422 49.2078 33.1281C51.2875 31.4125 54.3734 31.7109 56.0859 33.7937C56.3766 34.1453 56.7953 34.3265 57.2172 34.3265C57.5453 34.3265 57.875 34.2172 58.1469 33.9922C58.7719 33.4781 58.8609 32.5531 58.3469 31.9297C57.5109 30.9125 56.4688 30.1625 55.3328 29.689Z" fill="#FCC171"/>
<path d="M70.0485 67.011C70.4625 67.1047 70.8782 67.1688 71.2938 67.2125V64.25C71.0954 64.2219 70.8969 64.1969 70.7 64.1516C68.7719 63.711 67.1313 62.5454 66.0782 60.8688C65.15 59.3907 64.7719 57.625 65.0141 55.8985C65.125 55.0969 64.5672 54.3563 63.7672 54.2438C62.9657 54.1329 62.2266 54.6907 62.1141 55.4922C61.775 57.9016 62.3032 60.3657 63.5985 62.4297C65.0672 64.7688 67.3579 66.3954 70.0485 67.011Z" fill="#FCC171"/>
<path d="M47.6812 43.7032C46.2953 44.9625 44.5578 45.5797 42.8187 45.6032C42.9781 45.9157 43.1531 46.2188 43.3578 46.5047C42.9125 47.1297 42.5765 47.8157 42.3422 48.5313C42.4656 48.536 42.589 48.5516 42.7125 48.5516C45.189 48.5516 47.675 47.6672 49.65 45.8735C50.2484 45.3297 50.2937 44.4032 49.75 43.8032C49.2062 43.2047 48.2812 43.1594 47.6812 43.7032Z" fill="#FCC171"/>
<path d="M71.2938 23.1578C69.7141 22.6781 68.0344 22.5812 66.3688 22.9C63.6563 23.4171 61.3094 24.9609 59.7578 27.2468C59.3031 27.9156 59.4766 28.8281 60.1453 29.2828C60.8141 29.7375 61.725 29.564 62.1797 28.8937C63.2906 27.2562 64.9734 26.1515 66.9156 25.7796C68.4156 25.4937 69.9281 25.6765 71.2938 26.2843V23.1578Z" fill="#FCC171"/>
<path d="M92.0719 19.0468C96.3125 18.6187 100.189 21.5921 100.997 25.6343C105.105 26.9546 107.639 31.8437 106.181 36.0671C108.847 38.7124 109.267 43.414 107.061 46.5046C109.434 49.8484 108.752 54.8546 105.653 57.4468C106.352 61.9499 103.591 66.2109 99.0531 66.9031C98.8984 67.0234 98.7422 67.1406 98.5844 67.2578C97.5156 69.864 94.5078 71.5343 91.6266 70.9156C88.1453 76.1234 79.7594 73.9203 79.125 67.764V21.1562C79.125 12.5593 89.5703 12.7093 92.0719 19.0468Z" fill="#FEDBB0"/>
<path d="M93.0562 58.7531C94.3547 58.6218 95.525 57.9937 96.3531 56.9828C97.1781 55.9703 97.5625 54.6968 97.4328 53.3968C97.3516 52.5906 97.9391 51.8734 98.7437 51.7921C99.5484 51.714 100.266 52.3 100.345 53.1046C100.509 54.7406 100.162 56.35 99.3641 57.7484C100.233 59.2671 101.594 60.4187 103.256 61.0218C103.942 61.2718 104.648 61.414 105.358 61.4562C105.034 62.4734 104.527 63.4109 103.856 64.214C103.319 64.1109 102.783 63.9687 102.258 63.7781C100.259 63.0515 98.5734 61.7593 97.3687 60.0609C96.2187 60.9609 94.8359 61.5218 93.3484 61.6703C93.2984 61.675 93.2484 61.6765 93.2 61.6765C92.4578 61.6765 91.8203 61.1125 91.7453 60.3562C91.6641 59.5515 92.2516 58.8328 93.0562 58.7531Z" fill="#FCC171"/>
<path d="M79.2141 45.3766C79.1906 45.4344 79.1578 45.4875 79.1266 45.5422C79.1266 44.2859 79.1266 43.0266 79.1266 41.7766C82.5438 39.75 86.8891 39.8641 90.2047 42.1281C90.8844 40.7797 91.9594 39.6141 93.3735 38.8266C94.0797 38.4328 94.9719 38.6875 95.3641 39.3953C95.7578 40.1031 95.5031 40.9953 94.7969 41.3891C92.4422 42.7016 91.5922 45.6859 92.9016 48.0437C93.2953 48.7516 93.0406 49.6437 92.3344 50.0375C92.1078 50.1641 91.8656 50.2234 91.6235 50.2234C91.1094 50.2234 90.611 49.9516 90.3422 49.4687C89.5922 48.1172 89.2875 46.6375 89.3766 45.1984C86.4922 42.5641 82.0219 42.6281 79.2141 45.3766Z" fill="#FCC171"/>
<path d="M95.086 29.689C94.2657 28.2672 93.7875 26.6594 93.7094 24.9984C93.611 22.9344 94.1329 20.9828 95.1047 19.3187C96.0625 19.5906 96.9579 20.0359 97.7516 20.6156C96.986 21.8469 96.561 23.3047 96.6344 24.8609C96.7063 26.4015 97.2594 27.8797 98.2047 29.0859C99.9235 29.1062 101.645 29.6875 103.073 30.8656C103.697 31.3797 103.786 32.3031 103.272 32.9281C102.758 33.5531 101.836 33.6422 101.211 33.1281C99.1313 31.4125 96.0454 31.7109 94.3329 33.7937C94.0422 34.1453 93.6235 34.3265 93.2016 34.3265C92.8735 34.3265 92.5438 34.2172 92.2719 33.9922C91.6469 33.4781 91.5579 32.5531 92.0719 31.9297C92.9079 30.9125 93.9485 30.1625 95.086 29.689Z" fill="#FCC171"/>
<path d="M80.3687 67.011C79.9562 67.1047 79.5406 67.1688 79.125 67.2125V64.25C79.3234 64.2219 79.5203 64.1969 79.7187 64.1516C81.6469 63.711 83.2875 62.5454 84.3406 60.8688C85.2687 59.3907 85.6469 57.625 85.4047 55.8985C85.2937 55.0969 85.8516 54.3563 86.6516 54.2438C87.4516 54.1329 88.1922 54.6907 88.3047 55.4922C88.6437 57.9016 88.1156 60.3657 86.8203 62.4297C85.35 64.7688 83.0594 66.3954 80.3687 67.011Z" fill="#FCC171"/>
<path d="M102.736 43.7032C104.123 44.9625 105.859 45.5797 107.598 45.6032C107.441 45.9157 107.266 46.2188 107.061 46.5047C107.506 47.1297 107.842 47.8157 108.077 48.5313C107.953 48.536 107.83 48.5516 107.706 48.5516C105.23 48.5516 102.744 47.6672 100.769 45.8735C100.17 45.3297 100.125 44.4032 100.669 43.8032C101.212 43.2047 102.137 43.1594 102.736 43.7032Z" fill="#FCC171"/>
<path d="M79.125 23.1578C80.7031 22.6781 82.3844 22.5812 84.05 22.9C86.7625 23.4171 89.1094 24.9609 90.6609 27.2468C91.1156 27.9156 90.9422 28.8281 90.2734 29.2828C89.6047 29.7375 88.6938 29.564 88.2391 28.8937C87.1281 27.2562 85.4453 26.1515 83.5016 25.7796C82.0031 25.4937 80.4906 25.6765 79.125 26.2843V23.1578Z" fill="#FCC171"/>
<path d="M73.5469 94.6657C72.8578 94.6657 72.1969 94.3907 71.7094 93.9032L66.6328 88.8204C65.6172 87.8063 65.6172 86.1594 66.6328 85.1438C67.6469 84.1266 69.2906 84.1266 70.3047 85.1438L73.5469 88.3875L80.1141 81.811C81.1281 80.7938 82.7719 80.7938 83.7859 81.811C84.8016 82.825 84.8016 84.4719 83.7859 85.4875L75.3828 93.9032C74.8953 94.3907 74.2359 94.6657 73.5469 94.6657Z" fill="#FEDBB0"/>
</svg>
