<svg width="152" height="152" viewBox="0 0 152 152" fill="none" xmlns="http://www.w3.org/2000/svg">
<path d="M65.9743 25.4616C65.9743 33.828 65.9711 42.1927 65.9632 50.559C65.9632 54.7691 66.291 59.2515 64.7171 63.251C63.1021 67.3471 59.375 66.4985 55.6383 66.4415C45.6617 66.4415 35.6915 66.3085 25.7133 66.3085H10.7872C9.03131 66.4225 7.32131 66.196 5.65723 65.6276C5.08248 65.3458 4.54256 65.0038 4.04223 64.6048C3.54031 64.2058 3.08748 63.7577 2.68373 63.259C2.27839 62.7618 1.93323 62.2266 1.64506 61.655C1.35689 61.0819 1.13364 60.485 0.97531 59.8643C0.346726 57.3658 0.0965595 54.8309 0.226393 52.258V16.7707C0.132976 14.8976 0.311893 13.0499 0.76156 11.229C0.87556 10.7762 1.03706 10.3408 1.24289 9.92278C1.45031 9.50478 1.70048 9.1137 1.99023 8.74795C2.28156 8.3822 2.60773 8.05287 2.97031 7.75837C3.33289 7.46228 3.72081 7.20895 4.13723 6.99678C5.43714 6.53445 6.77348 6.35554 8.14939 6.46162C25.6072 6.59462 43.5226 4.96853 60.9013 7.0427C61.6708 7.06328 62.3833 7.2802 63.0356 7.69028C63.5993 8.20012 63.9793 8.82079 64.1756 9.55387C65.9632 14.6047 65.9743 20.0989 65.9743 25.4616Z" fill="#72CF7B"/>
<path d="M151.58 25.4616C151.58 33.828 151.576 42.1927 151.569 50.559C151.569 54.7691 151.896 59.2515 150.32 63.251C148.708 67.3471 144.98 66.4985 141.243 66.4415C131.266 66.4415 121.294 66.3085 111.318 66.3085H96.3918C94.6374 66.4225 92.9274 66.196 91.2618 65.6276C90.687 65.3458 90.1487 65.0038 89.6468 64.6048C89.1449 64.2058 88.692 63.7577 88.2883 63.259C87.8829 62.7618 87.5378 62.2266 87.2496 61.655C86.9614 61.0819 86.7382 60.485 86.5799 59.8643C85.9513 57.3658 85.7011 54.8309 85.8309 52.258V16.7707C85.7391 14.8976 85.918 13.0515 86.3677 11.2306C86.4817 10.7778 86.6416 10.3424 86.849 9.92279C87.0564 9.50479 87.3066 9.11212 87.5979 8.74795C87.8893 8.3822 88.2154 8.05287 88.578 7.75678C88.9406 7.46228 89.3301 7.20895 89.7465 6.99678C91.0464 6.53445 92.3828 6.35554 93.7587 6.46162C111.217 6.59462 129.132 4.96853 146.511 7.0427C147.28 7.06328 147.993 7.2802 148.645 7.69028C149.209 8.20012 149.589 8.82237 149.785 9.55545C151.569 14.6047 151.58 20.0989 151.58 25.4616Z" fill="#72CF7B"/>
<path d="M65.9743 105.024C65.9743 113.39 65.9711 121.757 65.9632 130.123C65.9632 134.332 66.291 138.816 64.7171 142.813C63.1021 146.911 59.375 146.061 55.6383 146.004C45.6617 146.004 35.6915 145.872 25.7133 145.872H10.7872C9.03131 145.986 7.32131 145.758 5.65723 145.192C5.08248 144.908 4.54256 144.568 4.04223 144.169C3.54031 143.768 3.08748 143.32 2.68373 142.823C2.27839 142.326 1.93323 141.791 1.64506 141.217C1.35689 140.646 1.13364 140.049 0.97531 139.427C0.346726 136.93 0.0965595 134.393 0.226393 131.82V96.3347C0.132976 94.4616 0.311893 92.6155 0.76156 90.7946C0.87556 90.3418 1.03548 89.9064 1.24289 89.4868C1.45031 89.0688 1.69889 88.6777 1.99023 88.312C2.28156 87.9462 2.60773 87.6169 2.97031 87.3208C3.33131 87.0263 3.72081 86.773 4.13723 86.5608C5.43714 86.0985 6.77348 85.9195 8.14939 86.024C25.6072 86.1586 43.5226 84.531 60.9013 86.6051C61.6708 86.6273 62.3833 86.8426 63.0356 87.2527C63.5993 87.7641 63.9793 88.3848 64.1756 89.1195C65.9632 94.1671 65.9743 99.6629 65.9743 105.024Z" fill="#72CF7B"/>
<path d="M151.58 105.024C151.58 113.39 151.576 121.757 151.569 130.123C151.569 134.332 151.896 138.816 150.32 142.813C148.708 146.911 144.98 146.061 141.243 146.004C131.266 146.004 121.294 145.872 111.318 145.872H96.3918C94.6374 145.986 92.9274 145.758 91.2618 145.192C90.687 144.908 90.1487 144.568 89.6468 144.169C89.1449 143.768 88.692 143.32 88.2883 142.823C87.8829 142.326 87.5378 141.791 87.2496 141.217C86.9614 140.646 86.7382 140.049 86.5799 139.427C85.9513 136.93 85.7011 134.393 85.8309 131.82V96.3347C85.7391 94.4616 85.918 92.6155 86.3677 90.7946C86.4801 90.3418 86.6416 89.9064 86.8474 89.4868C87.0549 89.0688 87.305 88.6777 87.5948 88.312C87.8861 87.9462 88.2123 87.6169 88.5749 87.3208C88.9374 87.0263 89.3254 86.773 89.7418 86.5608C91.0417 86.0985 92.3796 85.9195 93.7539 86.024C111.213 86.1586 129.127 84.531 146.506 86.6051C147.277 86.6273 147.988 86.8426 148.64 87.2527C149.204 87.7641 149.584 88.3848 149.78 89.1195C151.569 94.1671 151.58 99.6629 151.58 105.024Z" fill="#72CF7B"/>
<path d="M23.0312 50.0349C25.764 39.0845 29.7271 28.5997 34.9236 18.5788L29.8173 17.909C34.0828 29.7096 38.9801 41.2426 44.5107 52.508C44.6041 52.6664 44.7117 52.812 44.8337 52.9482C44.9572 53.0844 45.0902 53.2079 45.2374 53.3187C45.3831 53.428 45.5382 53.523 45.7029 53.6021C45.8676 53.6829 46.0386 53.7462 46.2159 53.7921C46.3932 53.838 46.5737 53.8681 46.7558 53.8792C46.9379 53.8903 47.12 53.8855 47.3021 53.8602C47.4842 53.8365 47.6615 53.7953 47.8341 53.7383C48.0082 53.6797 48.1745 53.6053 48.3328 53.5135C48.4896 53.4185 48.6352 53.3092 48.7698 53.1873C48.9044 53.0638 49.0263 52.9292 49.1356 52.7835C49.2448 52.6363 49.3382 52.4811 49.4174 52.3165C49.4966 52.1534 49.5599 51.9824 49.6058 51.805C49.6533 51.6293 49.6818 51.4504 49.6945 51.2683C49.7056 51.0862 49.7008 50.9041 49.6771 50.7236C49.6549 50.5431 49.6153 50.3658 49.5583 50.1916C49.5013 50.019 49.4285 49.8528 49.3398 49.6929C44.0198 38.8629 39.3094 27.7732 35.207 16.427C34.447 14.3275 31.2882 13.4725 30.1007 15.7573C24.6652 26.201 20.5137 37.1307 17.6431 48.5497C16.7691 52.0362 22.1572 53.5245 23.0312 50.0349Z" fill="#01142E"/>
<path d="M38.5605 31.5147C34.1383 31.3865 29.7144 31.3643 25.289 31.4482C25.1054 31.4482 24.9233 31.4656 24.7428 31.5021C24.5639 31.5369 24.3881 31.5907 24.2187 31.6604C24.0493 31.7301 23.8878 31.8171 23.7358 31.9185C23.5838 32.0198 23.4429 32.137 23.313 32.2652C23.1832 32.3951 23.0676 32.536 22.9647 32.6896C22.8634 32.8416 22.7779 33.0031 22.7066 33.1725C22.6369 33.3419 22.5831 33.5161 22.5483 33.6966C22.5119 33.8755 22.4944 34.0576 22.4944 34.2412C22.4944 34.4233 22.5119 34.6054 22.5483 34.7859C22.5831 34.9648 22.6369 35.1406 22.7066 35.31C22.7779 35.4778 22.8634 35.6393 22.9647 35.7913C23.0676 35.9449 23.1832 36.0858 23.313 36.2156C23.4429 36.3455 23.5838 36.4611 23.7358 36.5624C23.8878 36.6637 24.0493 36.7508 24.2187 36.8205C24.3881 36.8901 24.5639 36.944 24.7428 36.9788C24.9233 37.0152 25.1054 37.0326 25.289 37.0326C29.7113 36.9503 34.1351 36.9725 38.5605 37.0991C38.7426 37.0976 38.9247 37.0786 39.1036 37.0406C39.2825 37.0041 39.4567 36.9503 39.6261 36.8806C39.7939 36.8094 39.9539 36.7223 40.1059 36.621C40.2579 36.5196 40.3988 36.4025 40.5286 36.2742C40.6584 36.1444 40.774 36.0035 40.8754 35.8515C40.9783 35.6995 41.0638 35.5396 41.135 35.3717C41.2063 35.2023 41.2601 35.0281 41.2965 34.8492C41.3329 34.6703 41.3519 34.4898 41.3535 34.3061C41.3504 34.1241 41.3298 33.9436 41.2918 33.7646C41.2538 33.5873 41.1984 33.4147 41.1271 33.2469C41.0559 33.0791 40.9688 32.9191 40.8674 32.7671C40.7645 32.6167 40.6489 32.4758 40.5207 32.3476C40.3909 32.2177 40.2515 32.1037 40.0995 32.0008C39.9491 31.8995 39.7892 31.8124 39.6214 31.7411C39.4535 31.6699 39.2794 31.6145 39.102 31.5765C38.9231 31.5385 38.7426 31.5179 38.5605 31.5147Z" fill="#01142E"/>
<path d="M100.07 20.531C100.23 29.5133 100.258 38.4971 100.154 47.4825C100.113 51.0783 105.7 51.0799 105.741 47.4825C105.846 38.4987 105.817 29.5149 105.657 20.531C105.594 16.94 100.006 16.9289 100.07 20.531Z" fill="#01142E"/>
<path d="M103.27 22.9267C106.541 21.8833 109.894 21.3418 113.329 21.3006C115.981 21.2784 119.159 21.3006 121.581 22.5419C123.369 23.4571 123.505 24.8219 121.88 26.2168C120.834 27.0006 119.675 27.5484 118.403 27.8572C116.728 28.3448 115.089 28.9323 113.485 29.6226C110.525 30.9621 112.668 35.4651 115.639 34.7257C117.303 34.3061 118.991 34.1493 120.704 34.2554C121.63 34.3124 123.798 34.3362 124.433 35.1342C124.95 35.7881 124.724 37.6343 124.724 38.3863C124.767 38.6903 124.776 38.9943 124.748 39.2999C124.721 39.6055 124.659 39.9032 124.561 40.1945C124.464 40.4858 124.336 40.7613 124.175 41.021C124.013 41.2823 123.823 41.5213 123.606 41.7383C121.434 43.4641 117.974 43.7586 115.321 43.9296C111.704 44.1655 108.077 44.061 104.465 44.3903C104.283 44.3951 104.104 44.4173 103.925 44.4553C103.748 44.4948 103.575 44.5503 103.408 44.6215C103.24 44.6943 103.081 44.7814 102.929 44.8828C102.779 44.9841 102.64 45.0997 102.511 45.2295C102.382 45.3578 102.266 45.4971 102.165 45.6475C102.062 45.7995 101.975 45.9578 101.903 46.1257C101.831 46.2919 101.775 46.4645 101.737 46.6434C101.698 46.8208 101.677 47.0013 101.672 47.1833C101.672 47.3654 101.691 47.5475 101.729 47.7264C101.766 47.9053 101.819 48.0795 101.889 48.2489C101.96 48.4168 102.046 48.5783 102.149 48.7303C102.25 48.8823 102.366 49.0216 102.496 49.1514C102.625 49.2813 102.766 49.3968 102.918 49.4982C103.07 49.6011 103.23 49.6866 103.4 49.7578C103.569 49.8275 103.743 49.8813 103.922 49.9178C104.101 49.9558 104.283 49.9748 104.465 49.9748C109.207 49.5425 113.989 49.8307 118.712 49.1593C122.78 48.583 127.645 47.1168 129.452 43.0445C130.237 40.9719 130.505 38.8344 130.256 36.632C130.136 34.5246 129.742 32.4029 128.096 30.9225C126.339 29.3392 123.733 28.9544 121.465 28.7328C118.994 28.5158 116.556 28.7185 114.154 29.3423L116.307 34.4454C119.912 32.8114 123.966 32.5391 126.664 29.2838C129.235 26.1788 129.395 21.6885 126.168 18.9462C123.215 16.4398 119.144 15.9458 115.416 15.7605C110.765 15.5499 106.221 16.1453 101.781 17.5433C98.3598 18.6121 99.8213 24.0049 103.267 22.9283L103.27 22.9267Z" fill="#01142E"/>
<path d="M22.5926 105.733C26.5161 105.176 30.4618 104.429 34.4185 104.149C36.0969 103.974 37.7657 104.036 39.425 104.332C40.4795 104.555 42.6519 105.103 42.9052 106.053C43.0778 106.699 41.7367 108.058 41.1034 108.623C39.9697 109.613 38.6888 110.347 37.2606 110.825C35.0091 111.6 33.4321 112.87 33.2247 115.385C33.0537 117.466 33.193 119.616 33.1914 121.705C33.1914 125.297 38.779 125.303 38.779 121.705V117.954C38.8677 117.328 38.8677 116.703 38.779 116.079C38.8249 115.721 38.8186 115.623 38.76 115.789C38.6476 116.221 38.4354 116.43 38.1188 116.419C38.3135 116.503 39.254 116.031 39.4599 115.955C40.0378 115.732 40.6157 115.488 41.1746 115.219C41.9742 114.83 42.7342 114.372 43.453 113.848C47.1089 111.194 50.4941 106.322 46.9332 102.119C44.1275 98.8127 38.8598 98.2981 34.8318 98.5325C30.2401 98.8001 25.6516 99.6915 21.1027 100.345C20.9269 100.396 20.7559 100.461 20.5928 100.545C20.4298 100.627 20.2762 100.725 20.1321 100.838C19.988 100.95 19.8566 101.077 19.7363 101.216C19.6159 101.354 19.5114 101.503 19.4212 101.663C19.3309 101.821 19.2565 101.987 19.1979 102.161C19.1409 102.336 19.0998 102.513 19.0776 102.695C19.0538 102.876 19.0491 103.059 19.0618 103.241C19.0744 103.423 19.1045 103.604 19.152 103.78C19.2043 103.955 19.2724 104.122 19.3578 104.283C19.4434 104.445 19.5415 104.597 19.6555 104.739C19.7695 104.882 19.8962 105.011 20.0339 105.13C20.1733 105.247 20.3221 105.352 20.4804 105.442C20.6388 105.532 20.8034 105.605 20.976 105.664C21.1486 105.722 21.3259 105.764 21.5064 105.789C21.6869 105.814 21.8674 105.821 22.0495 105.811C22.2316 105.802 22.4105 105.775 22.5878 105.73L22.5926 105.733Z" fill="#01142E"/>
<path d="M36.2013 136.258C39.7987 136.258 39.8034 130.674 36.2013 130.674C32.5993 130.674 32.6008 136.258 36.2013 136.258Z" fill="#01142E"/>
<path d="M134.213 100.515C128.535 100.003 122.83 99.6803 117.126 99.6866C112.729 99.6866 107.79 100.16 104.449 103.352C100.607 107.025 100.442 113.069 102.269 117.76C102.716 118.934 103.281 120.047 103.965 121.1C104.649 122.154 105.434 123.123 106.324 124.01C107.214 124.896 108.186 125.68 109.241 126.361C110.297 127.042 111.411 127.606 112.586 128.05C118.722 130.471 125.617 129.358 131.92 128.345C132.098 128.294 132.267 128.228 132.43 128.145C132.593 128.062 132.747 127.965 132.891 127.851C133.035 127.739 133.168 127.612 133.287 127.474C133.405 127.335 133.511 127.186 133.602 127.026C133.692 126.868 133.766 126.701 133.823 126.527C133.882 126.353 133.923 126.176 133.945 125.995C133.969 125.813 133.974 125.631 133.963 125.447C133.95 125.265 133.92 125.086 133.872 124.909C133.82 124.735 133.751 124.567 133.667 124.406C133.581 124.244 133.483 124.092 133.369 123.95C133.255 123.807 133.13 123.677 132.991 123.559C132.851 123.44 132.704 123.335 132.544 123.247C132.386 123.156 132.221 123.082 132.048 123.023C131.876 122.965 131.699 122.924 131.518 122.898C131.338 122.875 131.155 122.867 130.973 122.878C130.791 122.887 130.612 122.914 130.435 122.958C122.645 124.211 112.125 125.427 107.949 116.92C106.555 114.085 105.814 109.722 108.395 107.306C110.597 105.246 114.511 105.263 117.479 105.277C123.066 105.301 128.644 105.602 134.207 106.104C134.39 106.104 134.571 106.085 134.75 106.047C134.93 106.01 135.104 105.957 135.272 105.887C135.442 105.816 135.601 105.73 135.753 105.627C135.905 105.526 136.046 105.41 136.176 105.281C136.306 105.151 136.422 105.01 136.523 104.859C136.626 104.707 136.711 104.546 136.783 104.378C136.852 104.209 136.906 104.034 136.944 103.856C136.981 103.677 137 103.495 137.001 103.312C136.996 103.13 136.976 102.95 136.938 102.771C136.9 102.594 136.844 102.419 136.773 102.252C136.702 102.084 136.615 101.925 136.513 101.773C136.411 101.623 136.295 101.482 136.167 101.354C136.037 101.224 135.898 101.11 135.746 101.007C135.595 100.906 135.435 100.819 135.267 100.747C135.1 100.676 134.925 100.621 134.748 100.583C134.569 100.545 134.389 100.523 134.207 100.519L134.213 100.515Z" fill="#01142E"/>
</svg>
