<svg width="150" height="150" viewBox="0 0 150 150" fill="none" xmlns="http://www.w3.org/2000/svg">
<g clip-path="url(#clip0_118_467)">
<path d="M150 75C150 76.2281 149.97 77.4547 149.909 78.6797C149.85 79.9062 149.759 81.1297 149.639 82.3516C149.519 83.5734 149.369 84.7906 149.188 86.0047C149.008 87.2188 148.798 88.4281 148.559 89.6312C148.319 90.8359 148.05 92.0328 147.752 93.2234C147.455 94.4141 147.127 95.5969 146.77 96.7719C146.414 97.9453 146.03 99.1109 145.616 100.267C145.202 101.422 144.761 102.567 144.291 103.702C143.822 104.834 143.323 105.956 142.798 107.066C142.275 108.177 141.723 109.272 141.144 110.355C140.566 111.438 139.961 112.505 139.33 113.558C138.698 114.609 138.042 115.647 137.361 116.667C136.678 117.688 135.972 118.691 135.241 119.677C134.509 120.662 133.755 121.63 132.975 122.58C132.197 123.528 131.395 124.456 130.572 125.366C129.747 126.277 128.902 127.164 128.033 128.033C127.166 128.9 126.277 129.747 125.367 130.57C124.458 131.395 123.528 132.197 122.58 132.975C121.631 133.753 120.664 134.509 119.678 135.241C118.692 135.97 117.689 136.678 116.667 137.359C115.647 138.042 114.611 138.698 113.558 139.33C112.505 139.959 111.438 140.564 110.355 141.144C109.272 141.722 108.177 142.273 107.067 142.798C105.956 143.323 104.836 143.82 103.702 144.291C102.567 144.759 101.422 145.202 100.267 145.616C99.1109 146.028 97.9453 146.414 96.7719 146.77C95.5969 147.127 94.4141 147.453 93.2234 147.752C92.0328 148.05 90.8359 148.319 89.6312 148.558C88.4281 148.797 87.2188 149.008 86.0047 149.188C84.7906 149.367 83.5734 149.517 82.3516 149.637C81.1297 149.758 79.9062 149.848 78.6797 149.909C77.4547 149.969 76.2281 149.998 75 150C73.7719 149.998 72.5453 149.969 71.3203 149.909C70.0938 149.848 68.8703 149.758 67.6484 149.637C66.4266 149.517 65.2094 149.367 63.9953 149.188C62.7812 149.008 61.5719 148.797 60.3688 148.558C59.1641 148.319 57.9672 148.05 56.7766 147.752C55.5859 147.453 54.4031 147.127 53.2281 146.77C52.0547 146.414 50.8891 146.028 49.7328 145.616C48.5781 145.202 47.4328 144.759 46.2984 144.291C45.1641 143.82 44.0422 143.323 42.9328 142.798C41.8234 142.273 40.7281 141.722 39.6453 141.144C38.5625 140.564 37.4953 139.959 36.4422 139.33C35.3891 138.698 34.3531 138.042 33.3328 137.359C32.3109 136.678 31.3078 135.97 30.3219 135.241C29.3359 134.509 28.3687 133.753 27.4203 132.975C26.4719 132.197 25.5422 131.395 24.6328 130.57C23.7234 129.747 22.8344 128.9 21.9672 128.033C21.0984 127.164 20.2531 126.277 19.4281 125.366C18.6047 124.456 17.8031 123.528 17.0234 122.58C16.2453 121.63 15.4906 120.662 14.7594 119.677C14.0281 118.691 13.3219 117.688 12.6391 116.667C11.9578 115.647 11.3016 114.609 10.6703 113.558C10.0391 112.505 9.43438 111.438 8.85625 110.355C8.27656 109.272 7.725 108.177 7.20156 107.066C6.67656 105.956 6.17812 104.834 5.70938 103.702C5.23906 102.567 4.79844 101.422 4.38438 100.267C3.97031 99.1109 3.58594 97.9453 3.22969 96.7719C2.87344 95.5969 2.54531 94.4141 2.24844 93.2234C1.95 92.0328 1.68125 90.8359 1.44062 89.6312C1.20156 88.4281 0.992188 87.2188 0.8125 86.0047C0.63125 84.7906 0.48125 83.5734 0.360938 82.3516C0.240625 81.1297 0.15 79.9062 0.0906248 78.6797C0.0296875 77.4547 0 76.2281 0 75C0 73.7719 0.0296875 72.5453 0.0906248 71.3203C0.15 70.0938 0.240625 68.8703 0.360938 67.6484C0.48125 66.4266 0.63125 65.2094 0.8125 63.9953C0.992188 62.7812 1.20156 61.5719 1.44062 60.3688C1.68125 59.1641 1.95 57.9672 2.24844 56.7766C2.54531 55.5859 2.87344 54.4031 3.22969 53.2281C3.58594 52.0547 3.97031 50.8891 4.38438 49.7328C4.79844 48.5781 5.23906 47.4328 5.70938 46.2984C6.17812 45.1656 6.67656 44.0438 7.20156 42.9344C7.725 41.8234 8.27656 40.7281 8.85625 39.6453C9.43438 38.5625 10.0391 37.4953 10.6703 36.4422C11.3016 35.3906 11.9578 34.3531 12.6391 33.3328C13.3219 32.3125 14.0281 31.3094 14.7594 30.3234C15.4906 29.3375 16.2453 28.3703 17.0234 27.4203C17.8031 26.4719 18.6047 25.5438 19.4281 24.6328C20.2531 23.7234 21.0984 22.8359 21.9672 21.9672C22.8344 21.1 23.7234 20.2531 24.6328 19.4297C25.5422 18.6047 26.4719 17.8031 27.4203 17.025C28.3687 16.2469 29.3359 15.4906 30.3219 14.7594C31.3078 14.0281 32.3109 13.3219 33.3328 12.6406C34.3531 11.9578 35.3891 11.3016 36.4422 10.6703C37.4953 10.0406 38.5625 9.43594 39.6453 8.85625C40.7281 8.27812 41.8234 7.72656 42.9328 7.20156C44.0422 6.67656 45.1641 6.17969 46.2984 5.70938C47.4328 5.24062 48.5781 4.79844 49.7328 4.38438C50.8891 3.97188 52.0547 3.58594 53.2281 3.22969C54.4031 2.87344 55.5859 2.54688 56.7766 2.24844C57.9672 1.95 59.1641 1.68125 60.3688 1.44219C61.5719 1.20312 62.7812 0.992188 63.9953 0.8125C65.2094 0.632812 66.4266 0.482812 67.6484 0.3625C68.8703 0.242188 70.0938 0.151562 71.3203 0.0906248C72.5453 0.03125 73.7719 0 75 0C76.2281 0 77.4547 0.03125 78.6797 0.0906248C79.9062 0.151562 81.1297 0.242188 82.3516 0.3625C83.5734 0.482812 84.7906 0.632812 86.0047 0.8125C87.2188 0.992188 88.4281 1.20312 89.6312 1.44219C90.8359 1.68125 92.0328 1.95 93.2234 2.24844C94.4141 2.54688 95.5969 2.87344 96.7719 3.22969C97.9453 3.58594 99.1109 3.97188 100.267 4.38438C101.422 4.79844 102.567 5.24062 103.702 5.70938C104.836 6.17969 105.956 6.67656 107.067 7.20156C108.177 7.72656 109.272 8.27812 110.355 8.85625C111.438 9.43594 112.505 10.0406 113.558 10.6703C114.611 11.3016 115.647 11.9578 116.667 12.6406C117.689 13.3219 118.692 14.0281 119.678 14.7594C120.664 15.4906 121.631 16.2469 122.58 17.025C123.528 17.8031 124.458 18.6047 125.367 19.4297C126.277 20.2531 127.166 21.1 128.033 21.9672C128.902 22.8359 129.747 23.7234 130.572 24.6328C131.395 25.5438 132.197 26.4719 132.975 27.4203C133.755 28.3703 134.509 29.3375 135.241 30.3234C135.972 31.3094 136.678 32.3125 137.361 33.3328C138.042 34.3531 138.698 35.3906 139.33 36.4422C139.961 37.4953 140.566 38.5625 141.144 39.6453C141.723 40.7281 142.275 41.8234 142.798 42.9344C143.323 44.0438 143.822 45.1656 144.291 46.2984C144.761 47.4328 145.202 48.5781 145.616 49.7328C146.03 50.8891 146.414 52.0547 146.77 53.2281C147.127 54.4031 147.455 55.5859 147.752 56.7766C148.05 57.9672 148.319 59.1641 148.559 60.3688C148.798 61.5719 149.008 62.7812 149.188 63.9953C149.369 65.2094 149.519 66.4266 149.639 67.6484C149.759 68.8703 149.85 70.0938 149.909 71.3203C149.97 72.5453 150 73.7719 150 75Z" fill="#72CF7B"/>
<path fill-rule="evenodd" clip-rule="evenodd" d="M8.82192 16.6125H141.18C142.445 16.6125 143.481 17.6485 143.481 18.9141V75.3141C143.481 76.5797 142.445 77.6157 141.18 77.6157H8.82192C7.55474 77.6157 6.5188 76.5797 6.5188 75.3141V18.9141C6.5188 17.6485 7.55474 16.6125 8.82192 16.6125Z" fill="#E4E4E4"/>
<path fill-rule="evenodd" clip-rule="evenodd" d="M8.82192 16.6125H141.18C142.445 16.6125 143.481 17.6485 143.481 18.9141V21.7485H6.5188V18.9141C6.5188 17.6485 7.55474 16.6125 8.82192 16.6125Z" fill="#DADADA"/>
<path fill-rule="evenodd" clip-rule="evenodd" d="M10.8687 31.9922H17.1312C17.3656 31.9922 17.5578 32.1844 17.5578 32.4172V38.6813C17.5578 38.9156 17.3656 39.1063 17.1312 39.1063H10.8687C10.6344 39.1063 10.4437 38.9156 10.4437 38.6813V32.4172C10.4437 32.1844 10.6344 31.9922 10.8687 31.9922Z" fill="#BBBBBB"/>
<path fill-rule="evenodd" clip-rule="evenodd" d="M19.9484 31.9922H26.2109C26.4453 31.9922 26.6375 32.1844 26.6375 32.4172V38.6813C26.6375 38.9156 26.4453 39.1063 26.2109 39.1063H19.9484C19.7141 39.1063 19.5234 38.9156 19.5234 38.6813V32.4172C19.5234 32.1844 19.7141 31.9922 19.9484 31.9922Z" fill="#BBBBBB"/>
<path fill-rule="evenodd" clip-rule="evenodd" d="M29.0281 31.9922H35.2922C35.5266 31.9922 35.7172 32.1844 35.7172 32.4172V38.6813C35.7172 38.9156 35.5266 39.1063 35.2922 39.1063H29.0281C28.7938 39.1063 28.6031 38.9156 28.6031 38.6813V32.4172C28.6031 32.1844 28.7938 31.9922 29.0281 31.9922Z" fill="#BBBBBB"/>
<path fill-rule="evenodd" clip-rule="evenodd" d="M38.1094 31.9922H44.3719C44.6063 31.9922 44.7969 32.1844 44.7969 32.4172V38.6813C44.7969 38.9156 44.6063 39.1063 44.3719 39.1063H38.1094C37.875 39.1063 37.6829 38.9156 37.6829 38.6813V32.4172C37.6829 32.1844 37.875 31.9922 38.1094 31.9922Z" fill="#BBBBBB"/>
<path fill-rule="evenodd" clip-rule="evenodd" d="M47.189 31.9922H53.4515C53.6859 31.9922 53.8765 32.1844 53.8765 32.4172V38.6813C53.8765 38.9156 53.6859 39.1063 53.4515 39.1063H47.189C46.9546 39.1063 46.7625 38.9156 46.7625 38.6813V32.4172C46.7625 32.1844 46.9546 31.9922 47.189 31.9922Z" fill="#BBBBBB"/>
<path fill-rule="evenodd" clip-rule="evenodd" d="M56.2688 31.9922H62.5313C62.7656 31.9922 62.9578 32.1844 62.9578 32.4172V38.6813C62.9578 38.9156 62.7656 39.1063 62.5313 39.1063H56.2688C56.0344 39.1063 55.8438 38.9156 55.8438 38.6813V32.4172C55.8438 32.1844 56.0344 31.9922 56.2688 31.9922Z" fill="#BBBBBB"/>
<path fill-rule="evenodd" clip-rule="evenodd" d="M65.3485 31.9922H71.611C71.8453 31.9922 72.0375 32.1844 72.0375 32.4172V38.6813C72.0375 38.9156 71.8453 39.1063 71.611 39.1063H65.3485C65.1141 39.1063 64.9235 38.9156 64.9235 38.6813V32.4172C64.9235 32.1844 65.1141 31.9922 65.3485 31.9922Z" fill="#BBBBBB"/>
<path fill-rule="evenodd" clip-rule="evenodd" d="M74.4282 31.9922H80.6922C80.925 31.9922 81.1172 32.1844 81.1172 32.4172V38.6813C81.1172 38.9156 80.925 39.1063 80.6922 39.1063H74.4282C74.1938 39.1063 74.0032 38.9156 74.0032 38.6813V32.4172C74.0032 32.1844 74.1938 31.9922 74.4282 31.9922Z" fill="#BBBBBB"/>
<path fill-rule="evenodd" clip-rule="evenodd" d="M83.5078 31.9922H89.7718C90.0062 31.9922 90.1968 32.1844 90.1968 32.4172V38.6813C90.1968 38.9156 90.0062 39.1063 89.7718 39.1063H83.5078C83.275 39.1063 83.0828 38.9156 83.0828 38.6813V32.4172C83.0828 32.1844 83.275 31.9922 83.5078 31.9922Z" fill="#BBBBBB"/>
<path fill-rule="evenodd" clip-rule="evenodd" d="M92.5875 31.9922H98.8515C99.0859 31.9922 99.2765 32.1844 99.2765 32.4172V38.6813C99.2765 38.9156 99.0859 39.1063 98.8515 39.1063H92.5875C92.3547 39.1063 92.1625 38.9156 92.1625 38.6813V32.4172C92.1625 32.1844 92.3547 31.9922 92.5875 31.9922Z" fill="#BBBBBB"/>
<path fill-rule="evenodd" clip-rule="evenodd" d="M101.669 31.9922H107.931C108.166 31.9922 108.356 32.1844 108.356 32.4172V38.6813C108.356 38.9156 108.166 39.1063 107.931 39.1063H101.669C101.434 39.1063 101.242 38.9156 101.242 38.6813V32.4172C101.242 32.1844 101.434 31.9922 101.669 31.9922Z" fill="#BBBBBB"/>
<path fill-rule="evenodd" clip-rule="evenodd" d="M110.748 31.9922H117.013C117.245 31.9922 117.438 32.1844 117.438 32.4172V38.6813C117.438 38.9156 117.245 39.1063 117.013 39.1063H110.748C110.514 39.1063 110.323 38.9156 110.323 38.6813V32.4172C110.323 32.1844 110.514 31.9922 110.748 31.9922Z" fill="#BBBBBB"/>
<path fill-rule="evenodd" clip-rule="evenodd" d="M119.828 31.9922H126.092C126.325 31.9922 126.517 32.1844 126.517 32.4172V38.6813C126.517 38.9156 126.325 39.1063 126.092 39.1063H119.828C119.595 39.1063 119.403 38.9156 119.403 38.6813V32.4172C119.403 32.1844 119.595 31.9922 119.828 31.9922Z" fill="#BBBBBB"/>
<path fill-rule="evenodd" clip-rule="evenodd" d="M128.908 31.9922H140.439C140.673 31.9922 140.866 32.1844 140.866 32.4172V38.6813C140.866 38.9156 140.673 39.1063 140.439 39.1063H128.908C128.675 39.1063 128.483 38.9156 128.483 38.6813V32.4172C128.483 32.1844 128.675 31.9922 128.908 31.9922Z" fill="#BBBBBB"/>
<path fill-rule="evenodd" clip-rule="evenodd" d="M10.8687 40.5859H21.9156C22.1484 40.5859 22.3406 40.7781 22.3406 41.0109V47.275C22.3406 47.5094 22.1484 47.7 21.9156 47.7H10.8687C10.6344 47.7 10.4437 47.5094 10.4437 47.275V41.0109C10.4437 40.7781 10.6344 40.5859 10.8687 40.5859Z" fill="#BBBBBB"/>
<path fill-rule="evenodd" clip-rule="evenodd" d="M24.7313 40.5859H30.9953C31.2297 40.5859 31.4203 40.7781 31.4203 41.0109V47.275C31.4203 47.5094 31.2297 47.7 30.9953 47.7H24.7313C24.4969 47.7 24.3063 47.5094 24.3063 47.275V41.0109C24.3063 40.7781 24.4969 40.5859 24.7313 40.5859Z" fill="#BBBBBB"/>
<path fill-rule="evenodd" clip-rule="evenodd" d="M33.8125 40.5859H40.075C40.3094 40.5859 40.5 40.7781 40.5 41.0109V47.275C40.5 47.5094 40.3094 47.7 40.075 47.7H33.8125C33.5782 47.7 33.386 47.5094 33.386 47.275V41.0109C33.386 40.7781 33.5782 40.5859 33.8125 40.5859Z" fill="#BBBBBB"/>
<path fill-rule="evenodd" clip-rule="evenodd" d="M42.8906 40.5859H49.1547C49.389 40.5859 49.5797 40.7781 49.5797 41.0109V47.275C49.5797 47.5094 49.389 47.7 49.1547 47.7H42.8906C42.6578 47.7 42.4672 47.5094 42.4672 47.275V41.0109C42.4672 40.7781 42.6578 40.5859 42.8906 40.5859Z" fill="#BBBBBB"/>
<path fill-rule="evenodd" clip-rule="evenodd" d="M51.9719 40.5859H58.2344C58.4688 40.5859 58.6609 40.7781 58.6609 41.0109V47.275C58.6609 47.5094 58.4688 47.7 58.2344 47.7H51.9719C51.7375 47.7 51.5469 47.5094 51.5469 47.275V41.0109C51.5469 40.7781 51.7375 40.5859 51.9719 40.5859Z" fill="#BBBBBB"/>
<path fill-rule="evenodd" clip-rule="evenodd" d="M61.0516 40.5859H67.3156C67.55 40.5859 67.7407 40.7781 67.7407 41.0109V47.275C67.7407 47.5094 67.55 47.7 67.3156 47.7H61.0516C60.8172 47.7 60.6266 47.5094 60.6266 47.275V41.0109C60.6266 40.7781 60.8172 40.5859 61.0516 40.5859Z" fill="#BBBBBB"/>
<path fill-rule="evenodd" clip-rule="evenodd" d="M70.1313 40.5859H76.3954C76.6282 40.5859 76.8204 40.7781 76.8204 41.0109V47.275C76.8204 47.5094 76.6282 47.7 76.3954 47.7H70.1313C69.8985 47.7 69.7063 47.5094 69.7063 47.275V41.0109C69.7063 40.7781 69.8985 40.5859 70.1313 40.5859Z" fill="#BBBBBB"/>
<path fill-rule="evenodd" clip-rule="evenodd" d="M79.2109 40.5859H85.475C85.7093 40.5859 85.9 40.7781 85.9 41.0109V47.275C85.9 47.5094 85.7093 47.7 85.475 47.7H79.2109C78.9781 47.7 78.7859 47.5094 78.7859 47.275V41.0109C78.7859 40.7781 78.9781 40.5859 79.2109 40.5859Z" fill="#BBBBBB"/>
<path fill-rule="evenodd" clip-rule="evenodd" d="M88.2922 40.5859H94.5547C94.789 40.5859 94.9797 40.7781 94.9797 41.0109V47.275C94.9797 47.5094 94.789 47.7 94.5547 47.7H88.2922C88.0578 47.7 87.8656 47.5094 87.8656 47.275V41.0109C87.8656 40.7781 88.0578 40.5859 88.2922 40.5859Z" fill="#BBBBBB"/>
<path fill-rule="evenodd" clip-rule="evenodd" d="M97.3719 40.5859H103.634C103.869 40.5859 104.059 40.7781 104.059 41.0109V47.275C104.059 47.5094 103.869 47.7 103.634 47.7H97.3719C97.1375 47.7 96.9453 47.5094 96.9453 47.275V41.0109C96.9453 40.7781 97.1375 40.5859 97.3719 40.5859Z" fill="#BBBBBB"/>
<path fill-rule="evenodd" clip-rule="evenodd" d="M106.452 40.5859H112.716C112.948 40.5859 113.141 40.7781 113.141 41.0109V47.275C113.141 47.5094 112.948 47.7 112.716 47.7H106.452C106.217 47.7 106.027 47.5094 106.027 47.275V41.0109C106.027 40.7781 106.217 40.5859 106.452 40.5859Z" fill="#BBBBBB"/>
<path fill-rule="evenodd" clip-rule="evenodd" d="M115.531 40.5859H121.795C122.028 40.5859 122.22 40.7781 122.22 41.0109V47.275C122.22 47.5094 122.028 47.7 121.795 47.7H115.531C115.298 47.7 115.106 47.5094 115.106 47.275V41.0109C115.106 40.7781 115.298 40.5859 115.531 40.5859Z" fill="#BBBBBB"/>
<path fill-rule="evenodd" clip-rule="evenodd" d="M124.611 40.5859H130.875C131.109 40.5859 131.3 40.7781 131.3 41.0109V47.275C131.3 47.5094 131.109 47.7 130.875 47.7H124.611C124.377 47.7 124.186 47.5094 124.186 47.275V41.0109C124.186 40.7781 124.377 40.5859 124.611 40.5859Z" fill="#BBBBBB"/>
<path fill-rule="evenodd" clip-rule="evenodd" d="M133.691 40.5859H139.955C140.189 40.5859 140.38 40.7781 140.38 41.0109V47.275C140.38 47.5094 140.189 47.7 139.955 47.7H133.691C133.458 47.7 133.266 47.5094 133.266 47.275V41.0109C133.266 40.7781 133.458 40.5859 133.691 40.5859Z" fill="#BBBBBB"/>
<path fill-rule="evenodd" clip-rule="evenodd" d="M26.8172 48.9485H33.0813C33.3141 48.9485 33.5063 49.1391 33.5063 49.3735V55.6375C33.5063 55.8704 33.3141 56.0625 33.0813 56.0625H26.8172C26.5844 56.0625 26.3922 55.8704 26.3922 55.6375V49.3735C26.3922 49.1391 26.5844 48.9485 26.8172 48.9485Z" fill="#BBBBBB"/>
<path fill-rule="evenodd" clip-rule="evenodd" d="M35.8968 48.9485H42.1609C42.3953 48.9485 42.5875 49.1391 42.5875 49.3735V55.6375C42.5875 55.8704 42.3953 56.0625 42.1609 56.0625H35.8968C35.664 56.0625 35.4734 55.8704 35.4734 55.6375V49.3735C35.4734 49.1391 35.664 48.9485 35.8968 48.9485Z" fill="#BBBBBB"/>
<path fill-rule="evenodd" clip-rule="evenodd" d="M44.9781 48.9485H51.2406C51.475 48.9485 51.6656 49.1391 51.6656 49.3735V55.6375C51.6656 55.8704 51.475 56.0625 51.2406 56.0625H44.9781C44.7437 56.0625 44.5515 55.8704 44.5515 55.6375V49.3735C44.5515 49.1391 44.7437 48.9485 44.9781 48.9485Z" fill="#BBBBBB"/>
<path fill-rule="evenodd" clip-rule="evenodd" d="M54.0578 48.9485H60.3219C60.5547 48.9485 60.7453 49.1391 60.7453 49.3735V55.6375C60.7453 55.8704 60.5547 56.0625 60.3219 56.0625H54.0578C53.8234 56.0625 53.6312 55.8704 53.6312 55.6375V49.3735C53.6312 49.1391 53.8234 48.9485 54.0578 48.9485Z" fill="#BBBBBB"/>
<path fill-rule="evenodd" clip-rule="evenodd" d="M63.1375 48.9485H69.4016C69.6344 48.9485 69.8266 49.1391 69.8266 49.3735V55.6375C69.8266 55.8704 69.6344 56.0625 69.4016 56.0625H63.1375C62.9047 56.0625 62.7125 55.8704 62.7125 55.6375V49.3735C62.7125 49.1391 62.9047 48.9485 63.1375 48.9485Z" fill="#BBBBBB"/>
<path fill-rule="evenodd" clip-rule="evenodd" d="M72.2172 48.9485H78.4813C78.7157 48.9485 78.9063 49.1391 78.9063 49.3735V55.6375C78.9063 55.8704 78.7157 56.0625 78.4813 56.0625H72.2172C71.9844 56.0625 71.7922 55.8704 71.7922 55.6375V49.3735C71.7922 49.1391 71.9844 48.9485 72.2172 48.9485Z" fill="#BBBBBB"/>
<path fill-rule="evenodd" clip-rule="evenodd" d="M81.2984 48.9485H87.5609C87.7953 48.9485 87.9859 49.1391 87.9859 49.3735V55.6375C87.9859 55.8704 87.7953 56.0625 87.5609 56.0625H81.2984C81.0625 56.0625 80.8718 55.8704 80.8718 55.6375V49.3735C80.8718 49.1391 81.0625 48.9485 81.2984 48.9485Z" fill="#BBBBBB"/>
<path fill-rule="evenodd" clip-rule="evenodd" d="M90.3765 48.9485H96.6406C96.875 48.9485 97.0656 49.1391 97.0656 49.3735V55.6375C97.0656 55.8704 96.875 56.0625 96.6406 56.0625H90.3765C90.1437 56.0625 89.9515 55.8704 89.9515 55.6375V49.3735C89.9515 49.1391 90.1437 48.9485 90.3765 48.9485Z" fill="#BBBBBB"/>
<path fill-rule="evenodd" clip-rule="evenodd" d="M99.4578 48.9485H105.722C105.955 48.9485 106.147 49.1391 106.147 49.3735V55.6375C106.147 55.8704 105.955 56.0625 105.722 56.0625H99.4578C99.2235 56.0625 99.0328 55.8704 99.0328 55.6375V49.3735C99.0328 49.1391 99.2235 48.9485 99.4578 48.9485Z" fill="#BBBBBB"/>
<path fill-rule="evenodd" clip-rule="evenodd" d="M108.538 48.9485H114.8C115.036 48.9485 115.227 49.1391 115.227 49.3735V55.6375C115.227 55.8704 115.036 56.0625 114.8 56.0625H108.538C108.303 56.0625 108.113 55.8704 108.113 55.6375V49.3735C108.113 49.1391 108.303 48.9485 108.538 48.9485Z" fill="#BBBBBB"/>
<path fill-rule="evenodd" clip-rule="evenodd" d="M117.617 48.9485H123.881C124.114 48.9485 124.306 49.1391 124.306 49.3735V55.6375C124.306 55.8704 124.114 56.0625 123.881 56.0625H117.617C117.383 56.0625 117.192 55.8704 117.192 55.6375V49.3735C117.192 49.1391 117.383 48.9485 117.617 48.9485Z" fill="#BBBBBB"/>
<path fill-rule="evenodd" clip-rule="evenodd" d="M126.697 48.9485H139.955C140.189 48.9485 140.38 49.1391 140.38 49.3735V55.6375C140.38 55.8704 140.189 56.0625 139.955 56.0625H126.697C126.464 56.0625 126.272 55.8704 126.272 55.6375V49.3735C126.272 49.1391 126.464 48.9485 126.697 48.9485Z" fill="#BBBBBB"/>
<path fill-rule="evenodd" clip-rule="evenodd" d="M31.2453 57.4H37.5078C37.7422 57.4 37.9344 57.5922 37.9344 57.825V64.0891C37.9344 64.3219 37.7422 64.5141 37.5078 64.5141H31.2453C31.0109 64.5141 30.8203 64.3219 30.8203 64.0891V57.825C30.8203 57.5922 31.0109 57.4 31.2453 57.4Z" fill="#BBBBBB"/>
<path fill-rule="evenodd" clip-rule="evenodd" d="M40.325 57.4H46.5875C46.8219 57.4 47.0141 57.5922 47.0141 57.825V64.0891C47.0141 64.3219 46.8219 64.5141 46.5875 64.5141H40.325C40.0906 64.5141 39.9 64.3219 39.9 64.0891V57.825C39.9 57.5922 40.0906 57.4 40.325 57.4Z" fill="#BBBBBB"/>
<path fill-rule="evenodd" clip-rule="evenodd" d="M49.4047 57.4H55.6688C55.9016 57.4 56.0938 57.5922 56.0938 57.825V64.0891C56.0938 64.3219 55.9016 64.5141 55.6688 64.5141H49.4047C49.1704 64.5141 48.9797 64.3219 48.9797 64.0891V57.825C48.9797 57.5922 49.1704 57.4 49.4047 57.4Z" fill="#BBBBBB"/>
<path fill-rule="evenodd" clip-rule="evenodd" d="M58.4843 57.4H64.7484C64.9812 57.4 65.1734 57.5922 65.1734 57.825V64.0891C65.1734 64.3219 64.9812 64.5141 64.7484 64.5141H58.4843C58.2515 64.5141 58.0593 64.3219 58.0593 64.0891V57.825C58.0593 57.5922 58.2515 57.4 58.4843 57.4Z" fill="#BBBBBB"/>
<path fill-rule="evenodd" clip-rule="evenodd" d="M67.564 57.4H73.8281C74.0625 57.4 74.2531 57.5922 74.2531 57.825V64.0891C74.2531 64.3219 74.0625 64.5141 73.8281 64.5141H67.564C67.3312 64.5141 67.139 64.3219 67.139 64.0891V57.825C67.139 57.5922 67.3312 57.4 67.564 57.4Z" fill="#BBBBBB"/>
<path fill-rule="evenodd" clip-rule="evenodd" d="M76.6453 57.4H82.9078C83.1422 57.4 83.3328 57.5922 83.3328 57.825V64.0891C83.3328 64.3219 83.1422 64.5141 82.9078 64.5141H76.6453C76.4109 64.5141 76.2188 64.3219 76.2188 64.0891V57.825C76.2188 57.5922 76.4109 57.4 76.6453 57.4Z" fill="#BBBBBB"/>
<path fill-rule="evenodd" clip-rule="evenodd" d="M85.725 57.4H91.9875C92.2219 57.4 92.4125 57.5922 92.4125 57.825V64.0891C92.4125 64.3219 92.2219 64.5141 91.9875 64.5141H85.725C85.4906 64.5141 85.2985 64.3219 85.2985 64.0891V57.825C85.2985 57.5922 85.4906 57.4 85.725 57.4Z" fill="#BBBBBB"/>
<path fill-rule="evenodd" clip-rule="evenodd" d="M94.8046 57.4H101.069C101.302 57.4 101.494 57.5922 101.494 57.825V64.0891C101.494 64.3219 101.302 64.5141 101.069 64.5141H94.8046C94.5703 64.5141 94.3796 64.3219 94.3796 64.0891V57.825C94.3796 57.5922 94.5703 57.4 94.8046 57.4Z" fill="#BBBBBB"/>
<path fill-rule="evenodd" clip-rule="evenodd" d="M103.884 57.4H110.148C110.383 57.4 110.573 57.5922 110.573 57.825V64.0891C110.573 64.3219 110.383 64.5141 110.148 64.5141H103.884C103.652 64.5141 103.459 64.3219 103.459 64.0891V57.825C103.459 57.5922 103.652 57.4 103.884 57.4Z" fill="#BBBBBB"/>
<path fill-rule="evenodd" clip-rule="evenodd" d="M112.966 57.4H119.228C119.463 57.4 119.653 57.5922 119.653 57.825V64.0891C119.653 64.3219 119.463 64.5141 119.228 64.5141H112.966C112.731 64.5141 112.539 64.3219 112.539 64.0891V57.825C112.539 57.5922 112.731 57.4 112.966 57.4Z" fill="#BBBBBB"/>
<path fill-rule="evenodd" clip-rule="evenodd" d="M122.045 57.4H139.955C140.189 57.4 140.38 57.5922 140.38 57.825V64.0891C140.38 64.3219 140.189 64.5141 139.955 64.5141H122.045C121.811 64.5141 121.619 64.3219 121.619 64.0891V57.825C121.619 57.5922 121.811 57.4 122.045 57.4Z" fill="#BBBBBB"/>
<path fill-rule="evenodd" clip-rule="evenodd" d="M10.8687 48.9485H24.3422C24.5781 48.9485 24.7687 49.1391 24.7687 49.3735V55.6375C24.7687 55.8704 24.5781 56.0625 24.3422 56.0625H10.8687C10.6344 56.0625 10.4437 55.8704 10.4437 55.6375V49.3735C10.4437 49.1391 10.6344 48.9485 10.8687 48.9485Z" fill="#BBBBBB"/>
<path fill-rule="evenodd" clip-rule="evenodd" d="M10.8687 57.4H28.639C28.8734 57.4 29.0656 57.5922 29.0656 57.825V64.0891C29.0656 64.3219 28.8734 64.5141 28.639 64.5141H10.8687C10.6344 64.5141 10.4437 64.3219 10.4437 64.0891V57.825C10.4437 57.5922 10.6344 57.4 10.8687 57.4Z" fill="#BBBBBB"/>
<path fill-rule="evenodd" clip-rule="evenodd" d="M47.675 66.1562H92.4422C92.6766 66.1562 92.8688 66.3469 92.8688 66.5813V72.8438C92.8688 73.0781 92.6766 73.2703 92.4422 73.2703H47.675C47.4422 73.2703 47.25 73.0781 47.25 72.8438V66.5813C47.25 66.3469 47.4422 66.1562 47.675 66.1562Z" fill="#BBBBBB"/>
<path fill-rule="evenodd" clip-rule="evenodd" d="M94.8046 66.3171H102.334C102.567 66.3171 102.759 66.5093 102.759 66.7437V73.0062C102.759 73.2406 102.567 73.4312 102.334 73.4312H94.8046C94.5703 73.4312 94.3796 73.2406 94.3796 73.0062V66.7437C94.3796 66.5093 94.5703 66.3171 94.8046 66.3171Z" fill="#BBBBBB"/>
<path fill-rule="evenodd" clip-rule="evenodd" d="M105.222 66.3171H111.484C111.719 66.3171 111.909 66.5093 111.909 66.7437V73.0062C111.909 73.2406 111.719 73.4312 111.484 73.4312H105.222C104.986 73.4312 104.795 73.2406 104.795 73.0062V66.7437C104.795 66.5093 104.986 66.3171 105.222 66.3171Z" fill="#BBBBBB"/>
<path fill-rule="evenodd" clip-rule="evenodd" d="M37.6235 66.3171H45.1516C45.386 66.3171 45.5782 66.5093 45.5782 66.7437V73.0062C45.5782 73.2406 45.386 73.4312 45.1516 73.4312H37.6235C37.3907 73.4312 37.1985 73.2406 37.1985 73.0062V66.7437C37.1985 66.5093 37.3907 66.3171 37.6235 66.3171Z" fill="#BBBBBB"/>
<path fill-rule="evenodd" clip-rule="evenodd" d="M28.8125 66.3171H35.0765C35.3109 66.3171 35.5015 66.5093 35.5015 66.7437V73.0062C35.5015 73.2406 35.3109 73.4312 35.0765 73.4312H28.8125C28.5781 73.4312 28.3875 73.2406 28.3875 73.0062V66.7437C28.3875 66.5093 28.5781 66.3171 28.8125 66.3171Z" fill="#BBBBBB"/>
<path fill-rule="evenodd" clip-rule="evenodd" d="M19.814 66.3171H26.0781C26.3109 66.3171 26.5015 66.5093 26.5015 66.7437V73.0062C26.5015 73.2406 26.3109 73.4312 26.0781 73.4312H19.814C19.5796 73.4312 19.3875 73.2406 19.3875 73.0062V66.7437C19.3875 66.5093 19.5796 66.3171 19.814 66.3171Z" fill="#BBBBBB"/>
<path fill-rule="evenodd" clip-rule="evenodd" d="M10.8687 66.3171H17.1312C17.3656 66.3171 17.5578 66.5093 17.5578 66.7437V73.0062C17.5578 73.2406 17.3656 73.4312 17.1312 73.4312H10.8687C10.6344 73.4312 10.4437 73.2406 10.4437 73.0062V66.7437C10.4437 66.5093 10.6344 66.3171 10.8687 66.3171Z" fill="#BBBBBB"/>
<path fill-rule="evenodd" clip-rule="evenodd" d="M124.466 65.6891H131.153C131.272 65.6891 131.366 65.786 131.366 65.9016V69.0328C131.366 69.15 131.272 69.2469 131.153 69.2469H124.466C124.348 69.2469 124.252 69.15 124.252 69.0328V65.9016C124.252 65.786 124.348 65.6891 124.466 65.6891Z" fill="#BBBBBB"/>
<path fill-rule="evenodd" clip-rule="evenodd" d="M124.466 70.3984H131.153C131.272 70.3984 131.366 70.4937 131.366 70.6109V73.7422C131.366 73.8594 131.272 73.9547 131.153 73.9547H124.466C124.348 73.9547 124.252 73.8594 124.252 73.7422V70.6109C124.252 70.4937 124.348 70.3984 124.466 70.3984Z" fill="#BBBBBB"/>
<path fill-rule="evenodd" clip-rule="evenodd" d="M115.386 70.3984H122.073C122.191 70.3984 122.286 70.4937 122.286 70.6109V73.7422C122.286 73.8594 122.191 73.9547 122.073 73.9547H115.386C115.269 73.9547 115.173 73.8594 115.173 73.7422V70.6109C115.173 70.4937 115.269 70.3984 115.386 70.3984Z" fill="#BBBBBB"/>
<path fill-rule="evenodd" clip-rule="evenodd" d="M133.545 70.3984H140.234C140.352 70.3984 140.447 70.4937 140.447 70.6109V73.7422C140.447 73.8594 140.352 73.9547 140.234 73.9547H133.545C133.428 73.9547 133.333 73.8594 133.333 73.7422V70.6109C133.333 70.4937 133.428 70.3984 133.545 70.3984Z" fill="#BBBBBB"/>
<path fill-rule="evenodd" clip-rule="evenodd" d="M25.4859 26.6594H32.175C32.2922 26.6594 32.3875 26.7547 32.3875 26.8719V30.0032C32.3875 30.1204 32.2922 30.2172 32.175 30.2172H25.4859C25.3687 30.2172 25.2734 30.1204 25.2734 30.0032V26.8719C25.2734 26.7547 25.3687 26.6594 25.4859 26.6594Z" fill="#BBBBBB"/>
<path fill-rule="evenodd" clip-rule="evenodd" d="M34.8094 26.6594H41.4985C41.6141 26.6594 41.711 26.7547 41.711 26.8719V30.0032C41.711 30.1204 41.6141 30.2172 41.4985 30.2172H34.8094C34.6922 30.2172 34.5969 30.1204 34.5969 30.0032V26.8719C34.5969 26.7547 34.6922 26.6594 34.8094 26.6594Z" fill="#BBBBBB"/>
<path fill-rule="evenodd" clip-rule="evenodd" d="M44.1328 26.6594H50.8203C50.9375 26.6594 51.0328 26.7547 51.0328 26.8719V30.0032C51.0328 30.1204 50.9375 30.2172 50.8203 30.2172H44.1328C44.0156 30.2172 43.9203 30.1204 43.9203 30.0032V26.8719C43.9203 26.7547 44.0156 26.6594 44.1328 26.6594Z" fill="#BBBBBB"/>
<path fill-rule="evenodd" clip-rule="evenodd" d="M53.4547 26.6594H60.1438C60.2609 26.6594 60.3563 26.7547 60.3563 26.8719V30.0032C60.3563 30.1204 60.2609 30.2172 60.1438 30.2172H53.4547C53.3391 30.2172 53.2422 30.1204 53.2422 30.0032V26.8719C53.2422 26.7547 53.3391 26.6594 53.4547 26.6594Z" fill="#BBBBBB"/>
<path fill-rule="evenodd" clip-rule="evenodd" d="M62.7782 26.6594H69.4672C69.5844 26.6594 69.6797 26.7547 69.6797 26.8719V30.0032C69.6797 30.1204 69.5844 30.2172 69.4672 30.2172H62.7782C62.6625 30.2172 62.5657 30.1204 62.5657 30.0032V26.8719C62.5657 26.7547 62.6625 26.6594 62.7782 26.6594Z" fill="#BBBBBB"/>
<path fill-rule="evenodd" clip-rule="evenodd" d="M72.1015 26.6594H78.7906C78.9078 26.6594 79.0031 26.7547 79.0031 26.8719V30.0032C79.0031 30.1204 78.9078 30.2172 78.7906 30.2172H72.1015C71.9844 30.2172 71.889 30.1204 71.889 30.0032V26.8719C71.889 26.7547 71.9844 26.6594 72.1015 26.6594Z" fill="#BBBBBB"/>
<path fill-rule="evenodd" clip-rule="evenodd" d="M81.425 26.6594H88.1141C88.2313 26.6594 88.3266 26.7547 88.3266 26.8719V30.0032C88.3266 30.1204 88.2313 30.2172 88.1141 30.2172H81.425C81.3078 30.2172 81.2125 30.1204 81.2125 30.0032V26.8719C81.2125 26.7547 81.3078 26.6594 81.425 26.6594Z" fill="#BBBBBB"/>
<path fill-rule="evenodd" clip-rule="evenodd" d="M90.7484 26.6594H97.4375C97.5546 26.6594 97.65 26.7547 97.65 26.8719V30.0032C97.65 30.1204 97.5546 30.2172 97.4375 30.2172H90.7484C90.6312 30.2172 90.5359 30.1204 90.5359 30.0032V26.8719C90.5359 26.7547 90.6312 26.6594 90.7484 26.6594Z" fill="#BBBBBB"/>
<path fill-rule="evenodd" clip-rule="evenodd" d="M100.072 26.6594H106.759C106.877 26.6594 106.973 26.7547 106.973 26.8719V30.0032C106.973 30.1204 106.877 30.2172 106.759 30.2172H100.072C99.9547 30.2172 99.8594 30.1204 99.8594 30.0032V26.8719C99.8594 26.7547 99.9547 26.6594 100.072 26.6594Z" fill="#BBBBBB"/>
<path fill-rule="evenodd" clip-rule="evenodd" d="M109.394 26.6594H116.084C116.2 26.6594 116.297 26.7547 116.297 26.8719V30.0032C116.297 30.1204 116.2 30.2172 116.084 30.2172H109.394C109.278 30.2172 109.183 30.1204 109.183 30.0032V26.8719C109.183 26.7547 109.278 26.6594 109.394 26.6594Z" fill="#BBBBBB"/>
<path fill-rule="evenodd" clip-rule="evenodd" d="M118.717 26.6594H125.406C125.523 26.6594 125.619 26.7547 125.619 26.8719V30.0032C125.619 30.1204 125.523 30.2172 125.406 30.2172H118.717C118.602 30.2172 118.505 30.1204 118.505 30.0032V26.8719C118.505 26.7547 118.602 26.6594 118.717 26.6594Z" fill="#BBBBBB"/>
<path fill-rule="evenodd" clip-rule="evenodd" d="M10.4218 31.2625H16.6859C16.9203 31.2625 17.1109 31.4546 17.1109 31.689V37.9515C17.1109 38.1859 16.9203 38.3765 16.6859 38.3765H10.4218C10.189 38.3765 9.99683 38.1859 9.99683 37.9515V31.689C9.99683 31.4546 10.189 31.2625 10.4218 31.2625Z" fill="white"/>
<path fill-rule="evenodd" clip-rule="evenodd" d="M19.5031 31.2625H25.7656C26 31.2625 26.1906 31.4546 26.1906 31.689V37.9515C26.1906 38.1859 26 38.3765 25.7656 38.3765H19.5031C19.2688 38.3765 19.0781 38.1859 19.0781 37.9515V31.689C19.0781 31.4546 19.2688 31.2625 19.5031 31.2625Z" fill="white"/>
<path fill-rule="evenodd" clip-rule="evenodd" d="M28.5828 31.2625H34.8453C35.0797 31.2625 35.2719 31.4546 35.2719 31.689V37.9515C35.2719 38.1859 35.0797 38.3765 34.8453 38.3765H28.5828C28.3485 38.3765 28.1578 38.1859 28.1578 37.9515V31.689C28.1578 31.4546 28.3485 31.2625 28.5828 31.2625Z" fill="white"/>
<path fill-rule="evenodd" clip-rule="evenodd" d="M37.6625 31.2625H43.9266C44.1594 31.2625 44.3516 31.4546 44.3516 31.689V37.9515C44.3516 38.1859 44.1594 38.3765 43.9266 38.3765H37.6625C37.4282 38.3765 37.2375 38.1859 37.2375 37.9515V31.689C37.2375 31.4546 37.4282 31.2625 37.6625 31.2625Z" fill="white"/>
<path fill-rule="evenodd" clip-rule="evenodd" d="M46.7421 31.2625H53.0046C53.2406 31.2625 53.4312 31.4546 53.4312 31.689V37.9515C53.4312 38.1859 53.2406 38.3765 53.0046 38.3765H46.7421C46.5093 38.3765 46.3171 38.1859 46.3171 37.9515V31.689C46.3171 31.4546 46.5093 31.2625 46.7421 31.2625Z" fill="white"/>
<path fill-rule="evenodd" clip-rule="evenodd" d="M55.8219 31.2625H62.0859C62.3203 31.2625 62.5109 31.4546 62.5109 31.689V37.9515C62.5109 38.1859 62.3203 38.3765 62.0859 38.3765H55.8219C55.5875 38.3765 55.3969 38.1859 55.3969 37.9515V31.689C55.3969 31.4546 55.5875 31.2625 55.8219 31.2625Z" fill="white"/>
<path fill-rule="evenodd" clip-rule="evenodd" d="M64.9031 31.2625H71.1656C71.4 31.2625 71.5906 31.4546 71.5906 31.689V37.9515C71.5906 38.1859 71.4 38.3765 71.1656 38.3765H64.9031C64.6688 38.3765 64.4766 38.1859 64.4766 37.9515V31.689C64.4766 31.4546 64.6688 31.2625 64.9031 31.2625Z" fill="white"/>
<path fill-rule="evenodd" clip-rule="evenodd" d="M73.9829 31.2625H80.2454C80.4797 31.2625 80.6719 31.4546 80.6719 31.689V37.9515C80.6719 38.1859 80.4797 38.3765 80.2454 38.3765H73.9829C73.7485 38.3765 73.5579 38.1859 73.5579 37.9515V31.689C73.5579 31.4546 73.7485 31.2625 73.9829 31.2625Z" fill="white"/>
<path fill-rule="evenodd" clip-rule="evenodd" d="M83.0625 31.2625H89.325C89.5593 31.2625 89.7515 31.4546 89.7515 31.689V37.9515C89.7515 38.1859 89.5593 38.3765 89.325 38.3765H83.0625C82.8281 38.3765 82.6375 38.1859 82.6375 37.9515V31.689C82.6375 31.4546 82.8281 31.2625 83.0625 31.2625Z" fill="white"/>
<path fill-rule="evenodd" clip-rule="evenodd" d="M92.1422 31.2625H98.4062C98.639 31.2625 98.8312 31.4546 98.8312 31.689V37.9515C98.8312 38.1859 98.639 38.3765 98.4062 38.3765H92.1422C91.9078 38.3765 91.7172 38.1859 91.7172 37.9515V31.689C91.7172 31.4546 91.9078 31.2625 92.1422 31.2625Z" fill="white"/>
<path fill-rule="evenodd" clip-rule="evenodd" d="M101.222 31.2625H107.486C107.72 31.2625 107.911 31.4546 107.911 31.689V37.9515C107.911 38.1859 107.72 38.3765 107.486 38.3765H101.222C100.989 38.3765 100.797 38.1859 100.797 37.9515V31.689C100.797 31.4546 100.989 31.2625 101.222 31.2625Z" fill="white"/>
<path fill-rule="evenodd" clip-rule="evenodd" d="M110.302 31.2625H116.566C116.8 31.2625 116.991 31.4546 116.991 31.689V37.9515C116.991 38.1859 116.8 38.3765 116.566 38.3765H110.302C110.069 38.3765 109.877 38.1859 109.877 37.9515V31.689C109.877 31.4546 110.069 31.2625 110.302 31.2625Z" fill="white"/>
<path fill-rule="evenodd" clip-rule="evenodd" d="M119.383 31.2625H125.645C125.88 31.2625 126.072 31.4546 126.072 31.689V37.9515C126.072 38.1859 125.88 38.3765 125.645 38.3765H119.383C119.148 38.3765 118.956 38.1859 118.956 37.9515V31.689C118.956 31.4546 119.148 31.2625 119.383 31.2625Z" fill="white"/>
<path fill-rule="evenodd" clip-rule="evenodd" d="M128.462 31.2625H139.994C140.228 31.2625 140.419 31.4546 140.419 31.689V37.9515C140.419 38.1859 140.228 38.3765 139.994 38.3765H128.462C128.228 38.3765 128.036 38.1859 128.036 37.9515V31.689C128.036 31.4546 128.228 31.2625 128.462 31.2625Z" fill="white"/>
<path fill-rule="evenodd" clip-rule="evenodd" d="M10.4218 39.8562H21.4687C21.7031 39.8562 21.8953 40.0484 21.8953 40.2812V46.5453C21.8953 46.7796 21.7031 46.9703 21.4687 46.9703H10.4218C10.189 46.9703 9.99683 46.7796 9.99683 46.5453V40.2812C9.99683 40.0484 10.189 39.8562 10.4218 39.8562Z" fill="white"/>
<path fill-rule="evenodd" clip-rule="evenodd" d="M24.2859 39.8562H30.55C30.7828 39.8562 30.9734 40.0484 30.9734 40.2812V46.5453C30.9734 46.7796 30.7828 46.9703 30.55 46.9703H24.2859C24.0516 46.9703 23.8594 46.7796 23.8594 46.5453V40.2812C23.8594 40.0484 24.0516 39.8562 24.2859 39.8562Z" fill="white"/>
<path fill-rule="evenodd" clip-rule="evenodd" d="M33.3657 39.8562H39.6282C39.8625 39.8562 40.0547 40.0484 40.0547 40.2812V46.5453C40.0547 46.7796 39.8625 46.9703 39.6282 46.9703H33.3657C33.1329 46.9703 32.9407 46.7796 32.9407 46.5453V40.2812C32.9407 40.0484 33.1329 39.8562 33.3657 39.8562Z" fill="white"/>
<path fill-rule="evenodd" clip-rule="evenodd" d="M42.4453 39.8562H48.7093C48.9437 39.8562 49.1343 40.0484 49.1343 40.2812V46.5453C49.1343 46.7796 48.9437 46.9703 48.7093 46.9703H42.4453C42.2109 46.9703 42.0203 46.7796 42.0203 46.5453V40.2812C42.0203 40.0484 42.2109 39.8562 42.4453 39.8562Z" fill="white"/>
<path fill-rule="evenodd" clip-rule="evenodd" d="M51.5265 39.8562H57.789C58.0234 39.8562 58.214 40.0484 58.214 40.2812V46.5453C58.214 46.7796 58.0234 46.9703 57.789 46.9703H51.5265C51.2906 46.9703 51.1 46.7796 51.1 46.5453V40.2812C51.1 40.0484 51.2906 39.8562 51.5265 39.8562Z" fill="white"/>
<path fill-rule="evenodd" clip-rule="evenodd" d="M60.6063 39.8562H66.8688C67.1031 39.8562 67.2938 40.0484 67.2938 40.2812V46.5453C67.2938 46.7796 67.1031 46.9703 66.8688 46.9703H60.6063C60.3719 46.9703 60.1797 46.7796 60.1797 46.5453V40.2812C60.1797 40.0484 60.3719 39.8562 60.6063 39.8562Z" fill="white"/>
<path fill-rule="evenodd" clip-rule="evenodd" d="M69.686 39.8562H75.9485C76.1829 39.8562 76.375 40.0484 76.375 40.2812V46.5453C76.375 46.7796 76.1829 46.9703 75.9485 46.9703H69.686C69.4516 46.9703 69.261 46.7796 69.261 46.5453V40.2812C69.261 40.0484 69.4516 39.8562 69.686 39.8562Z" fill="white"/>
<path fill-rule="evenodd" clip-rule="evenodd" d="M78.7656 39.8562H85.0281C85.2625 39.8562 85.4546 40.0484 85.4546 40.2812V46.5453C85.4546 46.7796 85.2625 46.9703 85.0281 46.9703H78.7656C78.5312 46.9703 78.3406 46.7796 78.3406 46.5453V40.2812C78.3406 40.0484 78.5312 39.8562 78.7656 39.8562Z" fill="white"/>
<path fill-rule="evenodd" clip-rule="evenodd" d="M87.8453 39.8562H94.1094C94.3437 39.8562 94.5344 40.0484 94.5344 40.2812V46.5453C94.5344 46.7796 94.3437 46.9703 94.1094 46.9703H87.8453C87.6109 46.9703 87.4203 46.7796 87.4203 46.5453V40.2812C87.4203 40.0484 87.6109 39.8562 87.8453 39.8562Z" fill="white"/>
<path fill-rule="evenodd" clip-rule="evenodd" d="M96.925 39.8562H103.189C103.422 39.8562 103.614 40.0484 103.614 40.2812V46.5453C103.614 46.7796 103.422 46.9703 103.189 46.9703H96.925C96.6922 46.9703 96.5 46.7796 96.5 46.5453V40.2812C96.5 40.0484 96.6922 39.8562 96.925 39.8562Z" fill="white"/>
<path fill-rule="evenodd" clip-rule="evenodd" d="M106.005 39.8562H112.269C112.503 39.8562 112.695 40.0484 112.695 40.2812V46.5453C112.695 46.7796 112.503 46.9703 112.269 46.9703H106.005C105.772 46.9703 105.581 46.7796 105.581 46.5453V40.2812C105.581 40.0484 105.772 39.8562 106.005 39.8562Z" fill="white"/>
<path fill-rule="evenodd" clip-rule="evenodd" d="M115.086 39.8562H121.348C121.583 39.8562 121.773 40.0484 121.773 40.2812V46.5453C121.773 46.7796 121.583 46.9703 121.348 46.9703H115.086C114.852 46.9703 114.659 46.7796 114.659 46.5453V40.2812C114.659 40.0484 114.852 39.8562 115.086 39.8562Z" fill="white"/>
<path fill-rule="evenodd" clip-rule="evenodd" d="M124.166 39.8562H130.43C130.662 39.8562 130.853 40.0484 130.853 40.2812V46.5453C130.853 46.7796 130.662 46.9703 130.43 46.9703H124.166C123.931 46.9703 123.739 46.7796 123.739 46.5453V40.2812C123.739 40.0484 123.931 39.8562 124.166 39.8562Z" fill="white"/>
<path fill-rule="evenodd" clip-rule="evenodd" d="M133.245 39.8562H139.509C139.742 39.8562 139.934 40.0484 139.934 40.2812V46.5453C139.934 46.7796 139.742 46.9703 139.509 46.9703H133.245C133.013 46.9703 132.82 46.7796 132.82 46.5453V40.2812C132.82 40.0484 133.013 39.8562 133.245 39.8562Z" fill="white"/>
<path fill-rule="evenodd" clip-rule="evenodd" d="M26.3719 48.2188H32.6344C32.8688 48.2188 33.061 48.4094 33.061 48.6438V54.9063C33.061 55.1406 32.8688 55.3328 32.6344 55.3328H26.3719C26.1375 55.3328 25.9469 55.1406 25.9469 54.9063V48.6438C25.9469 48.4094 26.1375 48.2188 26.3719 48.2188Z" fill="white"/>
<path fill-rule="evenodd" clip-rule="evenodd" d="M35.4516 48.2188H41.7157C41.9485 48.2188 42.1407 48.4094 42.1407 48.6438V54.9063C42.1407 55.1406 41.9485 55.3328 41.7157 55.3328H35.4516C35.2172 55.3328 35.0266 55.1406 35.0266 54.9063V48.6438C35.0266 48.4094 35.2172 48.2188 35.4516 48.2188Z" fill="white"/>
<path fill-rule="evenodd" clip-rule="evenodd" d="M44.5312 48.2188H50.7953C51.0296 48.2188 51.2203 48.4094 51.2203 48.6438V54.9063C51.2203 55.1406 51.0296 55.3328 50.7953 55.3328H44.5312C44.2984 55.3328 44.1062 55.1406 44.1062 54.9063V48.6438C44.1062 48.4094 44.2984 48.2188 44.5312 48.2188Z" fill="white"/>
<path fill-rule="evenodd" clip-rule="evenodd" d="M53.6109 48.2188H59.875C60.1094 48.2188 60.3 48.4094 60.3 48.6438V54.9063C60.3 55.1406 60.1094 55.3328 59.875 55.3328H53.6109C53.3781 55.3328 53.1859 55.1406 53.1859 54.9063V48.6438C53.1859 48.4094 53.3781 48.2188 53.6109 48.2188Z" fill="white"/>
<path fill-rule="evenodd" clip-rule="evenodd" d="M62.6922 48.2188H68.9547C69.1891 48.2188 69.3813 48.4094 69.3813 48.6438V54.9063C69.3813 55.1406 69.1891 55.3328 68.9547 55.3328H62.6922C62.4578 55.3328 62.2672 55.1406 62.2672 54.9063V48.6438C62.2672 48.4094 62.4578 48.2188 62.6922 48.2188Z" fill="white"/>
<path fill-rule="evenodd" clip-rule="evenodd" d="M71.7719 48.2188H78.0344C78.2688 48.2188 78.4594 48.4094 78.4594 48.6438V54.9063C78.4594 55.1406 78.2688 55.3328 78.0344 55.3328H71.7719C71.5375 55.3328 71.3453 55.1406 71.3453 54.9063V48.6438C71.3453 48.4094 71.5375 48.2188 71.7719 48.2188Z" fill="white"/>
<path fill-rule="evenodd" clip-rule="evenodd" d="M80.8515 48.2188H87.1156C87.3484 48.2188 87.5406 48.4094 87.5406 48.6438V54.9063C87.5406 55.1406 87.3484 55.3328 87.1156 55.3328H80.8515C80.6171 55.3328 80.4265 55.1406 80.4265 54.9063V48.6438C80.4265 48.4094 80.6171 48.2188 80.8515 48.2188Z" fill="white"/>
<path fill-rule="evenodd" clip-rule="evenodd" d="M89.9312 48.2188H96.1953C96.4281 48.2188 96.6203 48.4094 96.6203 48.6438V54.9063C96.6203 55.1406 96.4281 55.3328 96.1953 55.3328H89.9312C89.6984 55.3328 89.5062 55.1406 89.5062 54.9063V48.6438C89.5062 48.4094 89.6984 48.2188 89.9312 48.2188Z" fill="white"/>
<path fill-rule="evenodd" clip-rule="evenodd" d="M99.0109 48.2188H105.275C105.509 48.2188 105.7 48.4094 105.7 48.6438V54.9063C105.7 55.1406 105.509 55.3328 105.275 55.3328H99.0109C98.7781 55.3328 98.5859 55.1406 98.5859 54.9063V48.6438C98.5859 48.4094 98.7781 48.2188 99.0109 48.2188Z" fill="white"/>
<path fill-rule="evenodd" clip-rule="evenodd" d="M108.092 48.2188H114.355C114.589 48.2188 114.78 48.4094 114.78 48.6438V54.9063C114.78 55.1406 114.589 55.3328 114.355 55.3328H108.092C107.858 55.3328 107.666 55.1406 107.666 54.9063V48.6438C107.666 48.4094 107.858 48.2188 108.092 48.2188Z" fill="white"/>
<path fill-rule="evenodd" clip-rule="evenodd" d="M117.172 48.2188H123.434C123.669 48.2188 123.859 48.4094 123.859 48.6438V54.9063C123.859 55.1406 123.669 55.3328 123.434 55.3328H117.172C116.937 55.3328 116.747 55.1406 116.747 54.9063V48.6438C116.747 48.4094 116.937 48.2188 117.172 48.2188Z" fill="white"/>
<path fill-rule="evenodd" clip-rule="evenodd" d="M126.252 48.2188H139.509C139.742 48.2188 139.934 48.4094 139.934 48.6438V54.9063C139.934 55.1406 139.742 55.3328 139.509 55.3328H126.252C126.017 55.3328 125.827 55.1406 125.827 54.9063V48.6438C125.827 48.4094 126.017 48.2188 126.252 48.2188Z" fill="white"/>
<path fill-rule="evenodd" clip-rule="evenodd" d="M30.7984 56.6703H37.0625C37.2969 56.6703 37.4875 56.8609 37.4875 57.0953V63.3594C37.4875 63.5937 37.2969 63.7844 37.0625 63.7844H30.7984C30.5656 63.7844 30.3734 63.5937 30.3734 63.3594V57.0953C30.3734 56.8609 30.5656 56.6703 30.7984 56.6703Z" fill="white"/>
<path fill-rule="evenodd" clip-rule="evenodd" d="M39.8797 56.6703H46.1422C46.3766 56.6703 46.5672 56.8609 46.5672 57.0953V63.3594C46.5672 63.5937 46.3766 63.7844 46.1422 63.7844H39.8797C39.6453 63.7844 39.4531 63.5937 39.4531 63.3594V57.0953C39.4531 56.8609 39.6453 56.6703 39.8797 56.6703Z" fill="white"/>
<path fill-rule="evenodd" clip-rule="evenodd" d="M48.9594 56.6703H55.2219C55.4563 56.6703 55.6469 56.8609 55.6469 57.0953V63.3594C55.6469 63.5937 55.4563 63.7844 55.2219 63.7844H48.9594C48.725 63.7844 48.5328 63.5937 48.5328 63.3594V57.0953C48.5328 56.8609 48.725 56.6703 48.9594 56.6703Z" fill="white"/>
<path fill-rule="evenodd" clip-rule="evenodd" d="M58.039 56.6703H64.3015C64.5359 56.6703 64.7281 56.8609 64.7281 57.0953V63.3594C64.7281 63.5937 64.5359 63.7844 64.3015 63.7844H58.039C57.8046 63.7844 57.614 63.5937 57.614 63.3594V57.0953C57.614 56.8609 57.8046 56.6703 58.039 56.6703Z" fill="white"/>
<path fill-rule="evenodd" clip-rule="evenodd" d="M67.1187 56.6703H73.3812C73.6156 56.6703 73.8078 56.8609 73.8078 57.0953V63.3594C73.8078 63.5937 73.6156 63.7844 73.3812 63.7844H67.1187C66.8844 63.7844 66.6937 63.5937 66.6937 63.3594V57.0953C66.6937 56.8609 66.8844 56.6703 67.1187 56.6703Z" fill="white"/>
<path fill-rule="evenodd" clip-rule="evenodd" d="M76.1984 56.6703H82.4625C82.6969 56.6703 82.8875 56.8609 82.8875 57.0953V63.3594C82.8875 63.5937 82.6969 63.7844 82.4625 63.7844H76.1984C75.9641 63.7844 75.7734 63.5937 75.7734 63.3594V57.0953C75.7734 56.8609 75.9641 56.6703 76.1984 56.6703Z" fill="white"/>
<path fill-rule="evenodd" clip-rule="evenodd" d="M85.2781 56.6703H91.5422C91.7766 56.6703 91.9672 56.8609 91.9672 57.0953V63.3594C91.9672 63.5937 91.7766 63.7844 91.5422 63.7844H85.2781C85.0453 63.7844 84.8531 63.5937 84.8531 63.3594V57.0953C84.8531 56.8609 85.0453 56.6703 85.2781 56.6703Z" fill="white"/>
<path fill-rule="evenodd" clip-rule="evenodd" d="M94.3593 56.6703H100.622C100.856 56.6703 101.048 56.8609 101.048 57.0953V63.3594C101.048 63.5937 100.856 63.7844 100.622 63.7844H94.3593C94.125 63.7844 93.9343 63.5937 93.9343 63.3594V57.0953C93.9343 56.8609 94.125 56.6703 94.3593 56.6703Z" fill="white"/>
<path fill-rule="evenodd" clip-rule="evenodd" d="M103.439 56.6703H109.702C109.936 56.6703 110.128 56.8609 110.128 57.0953V63.3594C110.128 63.5937 109.936 63.7844 109.702 63.7844H103.439C103.205 63.7844 103.014 63.5937 103.014 63.3594V57.0953C103.014 56.8609 103.205 56.6703 103.439 56.6703Z" fill="white"/>
<path fill-rule="evenodd" clip-rule="evenodd" d="M112.519 56.6703H118.783C119.016 56.6703 119.208 56.8609 119.208 57.0953V63.3594C119.208 63.5937 119.016 63.7844 118.783 63.7844H112.519C112.284 63.7844 112.094 63.5937 112.094 63.3594V57.0953C112.094 56.8609 112.284 56.6703 112.519 56.6703Z" fill="white"/>
<path fill-rule="evenodd" clip-rule="evenodd" d="M121.598 56.6703H139.509C139.742 56.6703 139.934 56.8609 139.934 57.0953V63.3594C139.934 63.5937 139.742 63.7844 139.509 63.7844H121.598C121.366 63.7844 121.173 63.5937 121.173 63.3594V57.0953C121.173 56.8609 121.366 56.6703 121.598 56.6703Z" fill="white"/>
<path fill-rule="evenodd" clip-rule="evenodd" d="M10.4218 48.2188H23.8968C24.1312 48.2188 24.3234 48.4094 24.3234 48.6438V54.9063C24.3234 55.1406 24.1312 55.3328 23.8968 55.3328H10.4218C10.189 55.3328 9.99683 55.1406 9.99683 54.9063V48.6438C9.99683 48.4094 10.189 48.2188 10.4218 48.2188Z" fill="white"/>
<path fill-rule="evenodd" clip-rule="evenodd" d="M10.4218 56.6703H28.1937C28.4281 56.6703 28.6203 56.8609 28.6203 57.0953V63.3594C28.6203 63.5937 28.4281 63.7844 28.1937 63.7844H10.4218C10.189 63.7844 9.99683 63.5937 9.99683 63.3594V57.0953C9.99683 56.8609 10.189 56.6703 10.4218 56.6703Z" fill="white"/>
<path fill-rule="evenodd" clip-rule="evenodd" d="M47.2297 65.4265H91.9969C92.2297 65.4265 92.4219 65.6171 92.4219 65.8515V72.1156C92.4219 72.3484 92.2297 72.539 91.9969 72.539H47.2297C46.9953 72.539 46.8031 72.3484 46.8031 72.1156V65.8515C46.8031 65.6171 46.9953 65.4265 47.2297 65.4265Z" fill="white"/>
<path fill-rule="evenodd" clip-rule="evenodd" d="M94.3593 65.5875H101.887C102.122 65.5875 102.312 65.7797 102.312 66.0141V72.2766C102.312 72.511 102.122 72.7016 101.887 72.7016H94.3593C94.125 72.7016 93.9343 72.511 93.9343 72.2766V66.0141C93.9343 65.7797 94.125 65.5875 94.3593 65.5875Z" fill="white"/>
<path fill-rule="evenodd" clip-rule="evenodd" d="M104.775 65.5875H111.039C111.272 65.5875 111.464 65.7797 111.464 66.0141V72.2766C111.464 72.511 111.272 72.7016 111.039 72.7016H104.775C104.541 72.7016 104.35 72.511 104.35 72.2766V66.0141C104.35 65.7797 104.541 65.5875 104.775 65.5875Z" fill="white"/>
<path fill-rule="evenodd" clip-rule="evenodd" d="M37.1781 65.5875H44.7063C44.9391 65.5875 45.1313 65.7797 45.1313 66.0141V72.2766C45.1313 72.511 44.9391 72.7016 44.7063 72.7016H37.1781C36.9438 72.7016 36.7516 72.511 36.7516 72.2766V66.0141C36.7516 65.7797 36.9438 65.5875 37.1781 65.5875Z" fill="white"/>
<path fill-rule="evenodd" clip-rule="evenodd" d="M28.3672 65.5875H34.6313C34.8641 65.5875 35.0547 65.7797 35.0547 66.0141V72.2766C35.0547 72.511 34.8641 72.7016 34.6313 72.7016H28.3672C28.1329 72.7016 27.9407 72.511 27.9407 72.2766V66.0141C27.9407 65.7797 28.1329 65.5875 28.3672 65.5875Z" fill="white"/>
<path fill-rule="evenodd" clip-rule="evenodd" d="M19.3671 65.5875H25.6312C25.8656 65.5875 26.0562 65.7797 26.0562 66.0141V72.2766C26.0562 72.511 25.8656 72.7016 25.6312 72.7016H19.3671C19.1343 72.7016 18.9421 72.511 18.9421 72.2766V66.0141C18.9421 65.7797 19.1343 65.5875 19.3671 65.5875Z" fill="white"/>
<path fill-rule="evenodd" clip-rule="evenodd" d="M10.4218 65.5875H16.6859C16.9203 65.5875 17.1109 65.7797 17.1109 66.0141V72.2766C17.1109 72.511 16.9203 72.7016 16.6859 72.7016H10.4218C10.189 72.7016 9.99683 72.511 9.99683 72.2766V66.0141C9.99683 65.7797 10.189 65.5875 10.4218 65.5875Z" fill="white"/>
<path fill-rule="evenodd" clip-rule="evenodd" d="M124.019 64.9594H130.708C130.825 64.9594 130.92 65.0547 130.92 65.1719V68.3047C130.92 68.4219 130.825 68.5172 130.708 68.5172H124.019C123.902 68.5172 123.806 68.4219 123.806 68.3047V65.1719C123.806 65.0547 123.902 64.9594 124.019 64.9594Z" fill="white"/>
<path fill-rule="evenodd" clip-rule="evenodd" d="M124.019 69.6687H130.708C130.825 69.6687 130.92 69.764 130.92 69.8812V73.0125C130.92 73.1296 130.825 73.2265 130.708 73.2265H124.019C123.902 73.2265 123.806 73.1296 123.806 73.0125V69.8812C123.806 69.764 123.902 69.6687 124.019 69.6687Z" fill="white"/>
<path fill-rule="evenodd" clip-rule="evenodd" d="M114.939 69.6687H121.628C121.745 69.6687 121.841 69.764 121.841 69.8812V73.0125C121.841 73.1296 121.745 73.2265 121.628 73.2265H114.939C114.822 73.2265 114.727 73.1296 114.727 73.0125V69.8812C114.727 69.764 114.822 69.6687 114.939 69.6687Z" fill="white"/>
<path fill-rule="evenodd" clip-rule="evenodd" d="M133.1 69.6687H139.789C139.905 69.6687 140.002 69.764 140.002 69.8812V73.0125C140.002 73.1296 139.905 73.2265 139.789 73.2265H133.1C132.983 73.2265 132.887 73.1296 132.887 73.0125V69.8812C132.887 69.764 132.983 69.6687 133.1 69.6687Z" fill="white"/>
<path fill-rule="evenodd" clip-rule="evenodd" d="M25.039 25.9297H31.7281C31.8453 25.9297 31.9406 26.025 31.9406 26.1422V29.2734C31.9406 29.3906 31.8453 29.4859 31.7281 29.4859H25.039C24.9234 29.4859 24.8265 29.3906 24.8265 29.2734V26.1422C24.8265 26.025 24.9234 25.9297 25.039 25.9297Z" fill="white"/>
<path fill-rule="evenodd" clip-rule="evenodd" d="M34.3641 25.9297H41.0516C41.1688 25.9297 41.2657 26.025 41.2657 26.1422V29.2734C41.2657 29.3906 41.1688 29.4859 41.0516 29.4859H34.3641C34.2454 29.4859 34.1516 29.3906 34.1516 29.2734V26.1422C34.1516 26.025 34.2454 25.9297 34.3641 25.9297Z" fill="white"/>
<path fill-rule="evenodd" clip-rule="evenodd" d="M43.6859 25.9297H50.375C50.4921 25.9297 50.5875 26.025 50.5875 26.1422V29.2734C50.5875 29.3906 50.4921 29.4859 50.375 29.4859H43.6859C43.5687 29.4859 43.4734 29.3906 43.4734 29.2734V26.1422C43.4734 26.025 43.5687 25.9297 43.6859 25.9297Z" fill="white"/>
<path fill-rule="evenodd" clip-rule="evenodd" d="M53.0094 25.9297H59.6984C59.8156 25.9297 59.9109 26.025 59.9109 26.1422V29.2734C59.9109 29.3906 59.8156 29.4859 59.6984 29.4859H53.0094C52.8922 29.4859 52.7969 29.3906 52.7969 29.2734V26.1422C52.7969 26.025 52.8922 25.9297 53.0094 25.9297Z" fill="white"/>
<path fill-rule="evenodd" clip-rule="evenodd" d="M62.3329 25.9297H69.0219C69.1391 25.9297 69.2344 26.025 69.2344 26.1422V29.2734C69.2344 29.3906 69.1391 29.4859 69.0219 29.4859H62.3329C62.2157 29.4859 62.1204 29.3906 62.1204 29.2734V26.1422C62.1204 26.025 62.2157 25.9297 62.3329 25.9297Z" fill="white"/>
<path fill-rule="evenodd" clip-rule="evenodd" d="M71.6562 25.9297H78.3453C78.4609 25.9297 78.5578 26.025 78.5578 26.1422V29.2734C78.5578 29.3906 78.4609 29.4859 78.3453 29.4859H71.6562C71.539 29.4859 71.4437 29.3906 71.4437 29.2734V26.1422C71.4437 26.025 71.539 25.9297 71.6562 25.9297Z" fill="white"/>
<path fill-rule="evenodd" clip-rule="evenodd" d="M80.9797 25.9297H87.6672C87.7844 25.9297 87.8797 26.025 87.8797 26.1422V29.2734C87.8797 29.3906 87.7844 29.4859 87.6672 29.4859H80.9797C80.8625 29.4859 80.7656 29.3906 80.7656 29.2734V26.1422C80.7656 26.025 80.8625 25.9297 80.9797 25.9297Z" fill="white"/>
<path fill-rule="evenodd" clip-rule="evenodd" d="M90.3031 25.9297H96.9921C97.1078 25.9297 97.2046 26.025 97.2046 26.1422V29.2734C97.2046 29.3906 97.1078 29.4859 96.9921 29.4859H90.3031C90.1859 29.4859 90.0906 29.3906 90.0906 29.2734V26.1422C90.0906 26.025 90.1859 25.9297 90.3031 25.9297Z" fill="white"/>
<path fill-rule="evenodd" clip-rule="evenodd" d="M99.625 25.9297H106.314C106.431 25.9297 106.527 26.025 106.527 26.1422V29.2734C106.527 29.3906 106.431 29.4859 106.314 29.4859H99.625C99.5094 29.4859 99.4125 29.3906 99.4125 29.2734V26.1422C99.4125 26.025 99.5094 25.9297 99.625 25.9297Z" fill="white"/>
<path fill-rule="evenodd" clip-rule="evenodd" d="M108.948 25.9297H115.638C115.755 25.9297 115.85 26.025 115.85 26.1422V29.2734C115.85 29.3906 115.755 29.4859 115.638 29.4859H108.948C108.831 29.4859 108.736 29.3906 108.736 29.2734V26.1422C108.736 26.025 108.831 25.9297 108.948 25.9297Z" fill="white"/>
<path fill-rule="evenodd" clip-rule="evenodd" d="M118.272 25.9297H124.961C125.078 25.9297 125.173 26.025 125.173 26.1422V29.2734C125.173 29.3906 125.078 29.4859 124.961 29.4859H118.272C118.155 29.4859 118.059 29.3906 118.059 29.2734V26.1422C118.059 26.025 118.155 25.9297 118.272 25.9297Z" fill="white"/>
<path fill-rule="evenodd" clip-rule="evenodd" d="M20.8656 71.8328L18.9218 59.85C18.7609 58.8641 19.0218 57.95 19.6765 57.1938L26.2109 49.6594C27.8828 48.5594 28.8921 48.9516 29.1156 51.111L24.7734 57.836C24.2625 58.6297 24.1203 59.5031 24.3546 60.4156L26.0765 67.1016L31.5921 50.3813C31.7359 49.9469 31.975 49.611 32.3406 49.3344L39.1062 44.1844C42.1562 41.9172 44.4281 45.0485 42.7718 46.6719L37.8125 50.6156C37.364 50.9735 37.0968 51.4344 37.0156 52.0047L35.0343 65.6078L42.4265 52.1235C42.6609 51.6953 42.9843 51.3953 43.4281 51.1906L55.5328 45.6531C57.9062 45.2922 58.9515 48.1641 55.8046 49.9985L49.1703 54.5375C48.8109 54.7828 48.564 55.0828 48.3953 55.486L43.0781 68.0875L54.3421 55.5297C54.7296 55.1 55.2093 54.8625 55.7875 54.8156L66.8 53.9344C69.9515 53.85 70.7531 57.5031 67.9531 58.211L59.8703 59.2031C59.1859 59.286 58.6343 59.6422 58.2781 60.2297L49.0843 75.3485L49.6953 83.7985L54.4421 81.7047C56.3875 78.9094 57.1781 75.8406 60.2796 73.3188C63.15 71.2656 65.5093 73.7328 64.2859 75.9328L59.9546 87.1688C51.0671 96.0032 51.9796 95.6625 41.4843 101.647L39.9218 122.08L16.6062 120.708L21.5953 101.253L20.8656 71.8328Z" fill="#FFC57A"/>
<path fill-rule="evenodd" clip-rule="evenodd" d="M17.5328 97.0156L44.3281 101.809L43.5219 106.314L16.7266 101.52L17.5328 97.0156Z" fill="white"/>
<path fill-rule="evenodd" clip-rule="evenodd" d="M36.4812 139.362L43.5218 106.314L16.7265 101.52L13.2937 117.633C19.3781 126.422 27.289 133.848 36.4812 139.362Z" fill="#154E5E"/>
<path fill-rule="evenodd" clip-rule="evenodd" d="M129.133 71.8343L131.078 59.85C131.239 58.864 130.978 57.95 130.323 57.1953L123.789 49.6593C122.116 48.5578 121.108 48.9515 120.883 51.1109L125.227 57.8359C125.737 58.6281 125.88 59.5031 125.645 60.4156L123.923 67.1015L118.406 50.3812C118.262 49.9468 118.023 49.6109 117.659 49.3343L110.894 44.1843C107.842 41.9156 105.572 45.0484 107.228 46.6718L112.186 50.6156C112.636 50.9734 112.902 51.4343 112.984 52.0031L114.964 65.6078L107.572 52.1234C107.339 51.6953 107.016 51.3937 106.572 51.1921L94.4656 45.6546C92.0937 45.2921 91.0468 48.164 94.1953 49.9984L100.83 54.5375C101.189 54.7828 101.434 55.0843 101.603 55.4843L106.922 68.0859L95.6562 55.5296C95.2703 55.1 94.789 54.8625 94.2124 54.8156L83.1999 53.9343C80.0484 53.85 79.2468 57.5031 82.0468 58.2109L90.1296 59.2031C90.8124 59.2859 91.364 59.6421 91.7218 60.2296L100.914 75.3484L100.303 83.7984L95.5578 81.7046C93.6124 78.9078 92.8203 75.8421 89.7203 73.3187C86.8484 71.2656 84.489 73.7328 85.714 75.9328L90.0437 87.1687C98.9312 96.0046 98.0187 95.6624 108.516 101.647L110.078 122.08L133.394 120.708L128.405 101.253L129.133 71.8343Z" fill="#FFC57A"/>
<path fill-rule="evenodd" clip-rule="evenodd" d="M132.467 97.0156L105.672 101.809L106.477 106.314L133.273 101.52L132.467 97.0156Z" fill="white"/>
<path fill-rule="evenodd" clip-rule="evenodd" d="M113.517 139.362L106.477 106.314L133.273 101.52L136.705 117.634C130.62 126.422 122.711 133.85 113.517 139.362Z" fill="#154E5E"/>
</g>
<defs>
<clipPath id="clip0_118_467">
<rect width="150" height="150" fill="white"/>
</clipPath>
</defs>
</svg>
