<svg width="579" height="848" viewBox="0 0 579 848" fill="none" xmlns="http://www.w3.org/2000/svg">
<path d="M442.919 616.29L458.297 648.151C460.461 652.671 465.515 654.772 469.922 652.981C487.968 645.661 532.297 625.873 548.322 602.342L538.724 591.051C538.724 591.051 494.754 607.799 480.024 591.982L442.919 616.29Z" fill="#000D41"/>
<path d="M204.385 479.412L301.634 423.011C310.513 417.87 321.485 419.971 328.2 428.152L480.39 597.045L445.731 629.921C383.572 585.981 330.945 543.916 295.136 505.123L178.18 555.058L204.385 479.412Z" fill="#000D41"/>
<path d="M116.956 271.958L124.756 252.403C124.756 252.403 106.344 202.546 120.853 186.884C135.367 171.228 172.184 163.126 186.555 173.957C203.228 186.496 195.002 221.629 195.002 221.629L198.246 246.247C195.722 251.31 188.36 249.209 188.36 249.209C188.36 249.209 187.346 267.283 175.362 271.88C163.377 276.478 162.586 279.045 162.586 293.692C162.586 308.339 112.987 303.586 116.956 271.958Z" fill="#FEBAC7"/>
<path d="M167.346 282.395C191.753 291.196 207.491 316.752 205.47 344.487L197.742 451.599L205.104 482.451L75.9482 561.99L46.7811 490.476C25.9895 439.604 24.7605 381.644 44.473 330.306C44.9046 329.213 45.3363 328.127 45.7739 327.034C57.0331 299.066 72.339 278.89 95.8765 271.492C105.985 268.298 116.74 268.376 126.92 271.176L167.346 282.395Z" fill="#39D1DC"/>
<path d="M196.441 378.372L126.417 396.679C126.417 396.679 135.799 463.362 145.763 480.194C155.727 497.021 319.537 422.778 319.537 422.778L353.686 410.077C353.686 410.077 347.043 395.12 332.025 390.445C317.013 385.692 302.714 402.292 302.714 402.292L195.722 419.661L196.441 378.372Z" fill="#FEBAC7" stroke="#FEBAC7" stroke-width="0.651158" stroke-miterlimit="10"/>
<path d="M477.284 619.95L498.435 647.685C501.469 651.656 506.739 652.593 510.78 649.787C527.099 638.567 566.59 609.358 577.849 582.793L566.302 573.908C566.302 573.908 526.445 600.007 509.047 587.856L477.284 619.95Z" fill="#00348D"/>
<path d="M75.9482 561.99C75.9482 561.99 106.416 612.235 137.604 623.688C168.791 635.14 341.125 509.171 341.125 509.171C364.945 541.032 409.927 579.204 476.559 623.843L512.153 587.856C459.088 539.474 411.366 489.461 378.956 434.851C372.385 426.128 361.479 422.855 351.665 426.593L202.724 484.01L75.9482 561.99Z" fill="#FC5F62"/>
<path d="M202.652 484.01L75.9482 561.99C75.9482 561.99 82.3032 572.505 92.2673 585.05C105.913 565.107 139.408 523.43 202.652 484.01Z" fill="#000D41"/>
<path d="M227.281 456.339L359.219 408.467L361.401 415.484L229.469 463.356L227.281 456.339Z" fill="#E6E7E8"/>
<path d="M390.52 265.394L363.889 412.813L357.157 411.397L383.788 263.978L390.52 265.394Z" fill="#E6E7E8"/>
<path d="M365.382 411.946C365.382 412.703 365.244 413.427 364.981 414.126C364.711 414.824 364.333 415.438 363.835 415.968C363.344 416.505 362.774 416.913 362.127 417.204C361.479 417.488 360.808 417.637 360.112 417.637C359.411 417.637 358.739 417.488 358.092 417.204C357.45 416.913 356.875 416.505 356.383 415.968C355.892 415.438 355.508 414.824 355.238 414.126C354.974 413.427 354.843 412.703 354.843 411.946C354.843 411.196 354.974 410.472 355.238 409.774C355.508 409.075 355.892 408.461 356.383 407.924C356.875 407.394 357.45 406.98 358.092 406.695C358.739 406.404 359.411 406.262 360.112 406.262C360.808 406.262 361.479 406.404 362.127 406.695C362.774 406.98 363.344 407.394 363.835 407.924C364.333 408.461 364.711 409.075 364.981 409.774C365.244 410.472 365.382 411.196 365.382 411.946Z" fill="#BCBEC0"/>
<path d="M194.493 169.049C183.809 160.009 144.606 154.169 123.455 175.044C123.886 174.578 123.455 175.044 123.455 175.044C141.716 186.961 166.267 190.938 174.427 192.031C174.133 192.031 173.917 192.031 173.629 192.031C174.714 192.031 175.866 192.109 177.166 192.342C187.562 194.366 196.513 193.978 196.513 193.978C196.513 193.978 205.47 178.316 194.493 169.049Z" fill="#000D41"/>
<path d="M145.619 243.912C145.619 243.912 135.439 226.071 145.619 219.449C155.799 212.828 158.977 222.023 158.977 222.023C158.977 222.023 168.072 213.688 165.907 205.896C163.953 198.886 166.195 191.792 174.349 192.031C166.195 190.938 141.644 186.961 123.383 175.044C122.37 175.981 121.434 176.912 120.493 177.928C99.5576 200.522 119.918 247.961 124.174 250.767C128.509 253.496 141.866 261.754 145.619 243.912Z" fill="#9E8FAE"/>
<path d="M132.981 316.125C132.981 316.125 115.943 328.204 122.226 387.173" stroke="#000D41" stroke-width="1.55199" stroke-miterlimit="10" stroke-linecap="round"/>
<path d="M34.4369 357.491C35.0844 399.02 40.8638 498.967 80.4986 563.083C106.92 605.769 146.555 622.989 192.904 604.45C210.23 597.511 228.93 587.779 243.588 574.374C264.596 555.213 310.513 553.5 346.611 573.986C389.423 598.293 371.731 664.434 322.642 664.434H83.748C63.3161 664.434 44.7608 652.438 36.2415 633.659C2.45207 559.578 5.33462e-06 410.627 0.287779 357.653C0.359722 346.977 7.94375 338.408 17.3264 338.408C26.715 338.408 34.293 346.899 34.4369 357.491Z" fill="#375E9F"/>
</svg>
