<svg width="503" height="683" viewBox="0 0 503 683" fill="none" xmlns="http://www.w3.org/2000/svg">
<path d="M439.49 678.802H390.141L338.74 468.307C335.594 455.438 343.474 442.458 356.333 439.313C369.187 436.177 382.161 444.052 385.297 456.922L439.49 678.802Z" fill="#F9C4B8"/>
<path d="M115.146 523.427C92.6823 493.161 105.547 449.521 105.547 449.521L135.203 478.104L115.146 523.427Z" fill="#FCD105"/>
<path d="M357.656 676.911L153.526 676.474L162.25 434.677L275.219 406.745L373.359 432.495L357.656 676.911Z" fill="#39D1DC"/>
<path d="M181.005 206.411C194.089 187.427 211.448 171.734 233.344 161.896C265.406 147.49 294.193 140.292 330.833 165.818C367.469 191.354 365.109 186.286 379.245 193.969C409.344 210.344 400.839 222.781 409.344 250.932C417.849 279.083 438.13 265.99 442.714 287.594C447.292 309.198 447.948 345.203 447.948 345.203C447.948 345.203 413.922 369.427 389.062 377.286C368.943 383.646 311.203 398.234 311.203 398.234L181.005 206.411Z" fill="#39DC98"/>
<path d="M187.542 202.484C156.141 212.307 152.214 222.125 146.328 245.036C140.437 267.953 126.698 267.953 117.542 281.047C108.38 294.141 125.391 315.089 120.156 328.182C114.927 341.281 110.344 334.729 96.6042 353.714C82.8646 372.698 110.344 434.896 110.344 434.896C110.344 434.896 164.651 428.349 207.177 418.531C241.177 410.677 309.24 387.76 309.24 387.76L251.01 203.792L187.542 202.484Z" fill="#39DC98"/>
<path d="M271.307 449.719C269.089 449.719 266.844 449.406 264.615 448.76C251.896 445.068 244.589 431.766 248.276 419.047L260.057 378.453C263.745 365.734 277.042 358.417 289.75 362.109C302.464 365.807 309.776 379.109 306.083 391.828L294.307 432.417C291.266 442.901 281.693 449.719 271.307 449.719Z" fill="#EFB4AD"/>
<path d="M493.74 681.932H38.5104C36.7917 681.932 35.3906 680.531 35.3906 678.802C35.3906 677.078 36.7917 675.677 38.5104 675.677H493.74C495.469 675.677 496.87 677.078 496.87 678.802C496.87 680.531 495.469 681.932 493.74 681.932Z" fill="#0D0845"/>
<path d="M402.146 298.724C402.146 353.682 357.625 398.234 302.698 398.234C247.771 398.234 203.25 353.682 203.25 298.724C203.25 243.766 247.771 199.208 302.698 199.208C357.625 199.208 402.146 243.766 402.146 298.724Z" fill="#EFB4AD"/>
<path d="M226.12 330.156C237.203 339.807 238.875 356.036 229.859 366.396C220.844 376.76 204.547 377.333 193.464 367.677C182.38 358.021 180.708 341.792 189.729 331.432C198.74 321.068 215.036 320.5 226.12 330.156Z" fill="#EFB4AD"/>
<path d="M347.938 266.885C351.104 274.74 349.812 282.661 345.068 284.578C340.313 286.49 333.896 281.682 330.734 273.823C327.568 265.963 328.859 258.047 333.609 256.13C338.359 254.208 344.776 259.031 347.938 266.885Z" fill="#2C2C2D"/>
<path d="M297.12 294.036C300.193 301.682 298.937 309.396 294.312 311.255C289.687 313.12 283.448 308.432 280.365 300.786C277.286 293.146 278.536 285.432 283.167 283.568C287.792 281.708 294.036 286.391 297.12 294.036Z" fill="#2C2C2D"/>
<path d="M332.354 321.328C332.208 321.328 332.052 321.281 331.911 321.193C331.562 320.948 331.469 320.458 331.708 320.104C334.333 316.292 340.984 305.505 340.312 301.469C340.073 300.057 338.651 299.771 335.448 299.255C330.297 298.438 322.526 297.193 314.328 287.891C314.036 287.568 314.068 287.078 314.396 286.786C314.714 286.5 315.208 286.531 315.5 286.859C323.328 295.74 330.766 296.927 335.693 297.714C338.896 298.229 341.422 298.625 341.854 301.214C342.766 306.703 333.401 320.406 333 320.99C332.849 321.208 332.604 321.328 332.354 321.328Z" fill="#2C2C2D"/>
<path d="M303.833 279.068L301.568 277.786C308.484 265.547 317.182 267.036 317.552 267.109L317.068 269.672C316.781 269.62 309.786 268.552 303.833 279.068Z" fill="#36334C"/>
<path d="M204.557 324.901C203.911 324.901 203.344 324.422 203.266 323.76C203.177 323.047 203.682 322.396 204.396 322.307L246.271 317.068C246.984 316.984 247.635 317.484 247.724 318.203C247.807 318.911 247.307 319.568 246.594 319.656L204.719 324.891C204.661 324.901 204.609 324.901 204.557 324.901Z" fill="#36334C"/>
<path d="M220.698 360.172C220.427 360.172 220.161 360.031 220.021 359.781C219.927 359.615 210.37 343.146 200.719 342.151C197.786 341.839 195.094 343.047 192.708 345.729C192.422 346.047 191.932 346.078 191.604 345.792C191.286 345.505 191.26 345.005 191.542 344.682C194.281 341.609 197.422 340.229 200.885 340.594C211.328 341.672 220.969 358.297 221.375 359C221.589 359.375 221.458 359.854 221.089 360.068C220.964 360.135 220.833 360.172 220.698 360.172Z" fill="#36334C"/>
<path d="M200.417 352.531C200.234 352.531 200.052 352.474 199.906 352.349C199.578 352.068 199.542 351.578 199.818 351.245C203.682 346.698 209.672 345.984 209.922 345.958C210.349 345.906 210.74 346.219 210.786 346.646C210.833 347.073 210.526 347.458 210.099 347.51C210.042 347.521 204.464 348.193 201.01 352.26C200.854 352.443 200.635 352.531 200.417 352.531Z" fill="#36334C"/>
<path d="M329.495 340.839C326.651 340.839 323.609 340.271 320.651 338.693C320.271 338.49 320.125 338.016 320.328 337.635C320.531 337.255 321.005 337.109 321.385 337.312C330.687 342.276 341.453 336.078 341.557 336.021C341.932 335.802 342.406 335.927 342.625 336.297C342.844 336.672 342.724 337.146 342.349 337.37C342.016 337.562 336.354 340.839 329.495 340.839Z" fill="#2C2C2D"/>
<path d="M330.682 350.057C329.068 350.057 327 349.734 324.974 348.49C324.604 348.266 324.49 347.787 324.714 347.412C324.938 347.052 325.422 346.932 325.792 347.156C329.344 349.333 333.177 348.182 333.214 348.172C333.63 348.042 334.068 348.271 334.193 348.682C334.323 349.094 334.094 349.531 333.682 349.662C333.589 349.688 332.391 350.057 330.682 350.057Z" fill="#2C2C2D"/>
<path d="M224.922 314.135C227.693 328.088 226.099 340.635 218.589 342.849C211.078 345.062 202.615 335.505 197.719 322.151C190.161 301.562 196.542 295.656 204.047 293.443C211.557 291.229 216.771 273.187 224.922 314.135Z" fill="#433FAB"/>
<path d="M292.229 207.724C292.229 207.724 313.26 209.016 327.177 214.12C339.156 206.891 347.188 202.484 347.188 202.484C347.188 202.484 324.781 190.099 283.943 190.266C273.339 190.307 256.844 196.87 247.469 201.828C233.656 209.12 214.224 222.156 203.25 241.766C184.927 274.5 194.964 305.052 194.964 305.052C194.964 305.052 243.813 278.427 280.453 250.932C293.38 241.224 300.953 235.219 312.365 223.276L292.229 207.724Z" fill="#39DC98"/>
<path d="M319.562 218.25C319.432 218.25 319.297 218.219 319.177 218.146C319.094 218.104 311.13 213.609 290.573 208.036C290.156 207.927 289.906 207.5 290.026 207.078C290.135 206.661 290.562 206.417 290.984 206.531C311.771 212.167 319.63 216.604 319.953 216.792C320.328 217.01 320.453 217.484 320.24 217.854C320.099 218.109 319.833 218.25 319.562 218.25Z" fill="#433FAB"/>
<path d="M109.219 432.135C108.214 430.224 84.7031 385.286 83.25 371.328C81.8646 358.052 86.8646 353.203 97.8229 342.578C98.7188 341.714 99.6563 340.797 100.635 339.844C102.573 337.953 104.286 336.354 105.797 334.943C114.151 327.151 115.891 325.531 113.5 312.615C112.599 307.755 111.271 303.677 110.089 300.073C107.479 292.073 105.417 285.755 110.401 277.443C114.526 270.568 121.802 264.818 128.224 259.745C132.719 256.187 136.974 252.828 139.229 249.74C141.667 246.401 141.573 242.974 141.458 239.005C141.333 234.365 141.188 229.109 145.005 222.74C154.453 206.979 166.349 200.943 183.573 203.167L183.375 204.719C166.625 202.552 155.557 208.182 146.344 223.547C142.76 229.521 142.901 234.536 143.021 238.964C143.135 243.042 143.24 246.896 140.49 250.667C138.109 253.922 133.776 257.344 129.188 260.974C122.87 265.958 115.719 271.615 111.74 278.245C107.125 285.948 108.995 291.667 111.578 299.589C112.766 303.234 114.12 307.37 115.036 312.328C117.583 326.094 115.313 328.208 106.859 336.089C105.359 337.495 103.651 339.083 101.729 340.964C100.75 341.927 99.8125 342.833 98.9115 343.708C88.0104 354.271 83.5 358.646 84.8021 371.167C86.224 384.828 110.359 430.937 110.599 431.406L109.219 432.135Z" fill="#39DC98"/>
<path d="M447.562 344.786L446 344.745C446.005 344.578 446.453 327.802 447.75 303.844C449.052 279.62 445.516 275.068 436.505 269.792C433.135 267.823 430.286 266.807 427.516 265.818C420.807 263.432 415.01 261.365 406.062 246.755L407.396 245.938C416.052 260.083 421.349 261.964 428.047 264.349C430.875 265.354 433.802 266.401 437.292 268.438C447.422 274.37 450.583 280.328 449.312 303.927C448.016 327.865 447.568 344.625 447.562 344.786Z" fill="#39DC98"/>
<path d="M304.875 335.823C304.875 343.349 298.339 349.448 290.271 349.448C282.193 349.448 275.656 343.349 275.656 335.823C275.656 328.292 282.193 322.193 290.271 322.193C298.339 322.193 304.875 328.292 304.875 335.823Z" fill="#F26375"/>
<path d="M371.615 294.792C371.615 301.422 365.854 306.797 358.745 306.797C351.641 306.797 345.88 301.422 345.88 294.792C345.88 288.167 351.641 282.792 358.745 282.792C365.854 282.792 371.615 288.167 371.615 294.792Z" fill="#F26375"/>
<path d="M348.062 228.01C331.104 228.01 317.307 241.818 317.307 258.786C317.307 275.755 331.104 289.562 348.062 289.562C365.021 289.562 378.818 275.755 378.818 258.786C378.818 241.818 365.021 228.01 348.062 228.01ZM348.062 292.172C329.667 292.172 314.698 277.193 314.698 258.786C314.698 240.38 329.667 225.401 348.062 225.401C366.453 225.401 381.422 240.38 381.422 258.786C381.422 277.193 366.453 292.172 348.062 292.172Z" fill="#36334C"/>
<path d="M275.875 267.948C257.833 267.948 243.151 282.635 243.151 300.687C243.151 318.74 257.833 333.427 275.875 333.427C293.917 333.427 308.594 318.74 308.594 300.687C308.594 282.635 293.917 267.948 275.875 267.948ZM275.875 336.031C256.396 336.031 240.552 320.177 240.552 300.687C240.552 281.193 256.396 265.339 275.875 265.339C295.354 265.339 311.198 281.193 311.198 300.687C311.198 320.177 295.354 336.031 275.875 336.031Z" fill="#36334C"/>
<path d="M301.823 399.156C294.719 399.156 272.115 398.37 257.135 388.859C256.766 388.625 256.661 388.146 256.896 387.776C257.125 387.411 257.609 387.302 257.974 387.536C275.438 398.62 303.688 397.573 303.969 397.562C304.401 397.547 304.771 397.88 304.786 398.307C304.807 398.74 304.474 399.109 304.042 399.125C303.995 399.13 303.198 399.156 301.823 399.156Z" fill="#2C2C2D"/>
<path d="M30.526 526.75C22.9896 526.75 15.7083 523.182 11.1146 516.828C4.96353 508.333 5.04686 496.833 11.3177 488.422L136.938 319.953C144.849 309.333 159.865 307.156 170.474 315.073C181.083 322.995 183.266 338.021 175.349 348.635L95.5729 455.625L150.26 437.26C162.812 433.047 176.396 439.807 180.604 452.359C184.818 464.922 178.057 478.516 165.51 482.729L38.151 525.5C35.6406 526.344 33.0677 526.75 30.526 526.75Z" fill="#F9C4B8"/>
<path d="M194.026 365.068L183.688 363.745L200.516 231.818L210.854 233.135L194.026 365.068Z" fill="#0D0845"/>
<path d="M205.38 234.042L204.719 233.943C201.969 233.521 200.068 230.917 200.495 228.172L201.885 219.13C202.307 216.38 204.906 214.474 207.656 214.896L208.312 215C211.062 215.427 212.964 218.021 212.547 220.776L211.151 229.812C210.729 232.562 208.13 234.469 205.38 234.042Z" fill="#FDFCFB"/>
<path d="M209.943 245.745L198.224 244.469L199.807 229.938L211.526 231.214L209.943 245.745Z" fill="#E8EDFD"/>
<path d="M218.078 315.964C218.078 336.208 188.589 349.135 168.359 349.135C148.12 349.135 125.172 341.281 135.641 310.292C145.531 281 156.839 271.885 177.078 271.885C197.313 271.885 218.078 295.714 218.078 315.964Z" fill="#F9C4B8"/>
<path d="M160.51 295.052C157.281 295.052 154.135 293.432 152.307 290.49C149.505 285.958 150.906 280.016 155.427 277.214C175.719 264.641 206.885 263.589 208.203 263.547C213.521 263.401 217.958 267.578 218.12 272.906C218.276 278.229 214.089 282.672 208.766 282.833C208.505 282.839 181.427 283.792 165.578 293.609C164 294.589 162.245 295.052 160.51 295.052Z" fill="#F9C4B8"/>
<path d="M177.068 303.786C172.547 303.786 168.516 300.589 167.615 295.99C166.599 290.755 170.01 285.698 175.234 284.672L211 277.693C216.224 276.672 221.286 280.078 222.307 285.312C223.328 290.536 219.917 295.604 214.693 296.625L178.927 303.604C178.302 303.724 177.677 303.786 177.068 303.786Z" fill="#F9C4B8"/>
<path d="M186.234 322.99C181.979 322.99 178.094 320.156 176.932 315.859C175.547 310.714 178.589 305.422 183.729 304.036L211.208 296.609C216.349 295.224 221.635 298.271 223.021 303.411C224.406 308.552 221.37 313.849 216.229 315.234L188.75 322.656C187.906 322.88 187.062 322.99 186.234 322.99Z" fill="#F9C4B8"/>
<path d="M193.208 336.958C188.927 336.958 185.021 334.083 183.896 329.745C182.547 324.594 185.635 319.323 190.786 317.979L210.849 312.745C216 311.401 221.266 314.484 222.604 319.641C223.948 324.792 220.865 330.057 215.714 331.401L195.651 336.641C194.833 336.854 194.016 336.958 193.208 336.958Z" fill="#F9C4B8"/>
<path d="M157.458 298.547C154.479 298.547 151.542 297.172 149.656 294.573C146.521 290.266 147.479 284.234 151.781 281.104C151.927 280.995 168.958 268.24 178.187 245.552C180.187 240.615 185.812 238.245 190.74 240.25C195.672 242.26 198.042 247.885 196.042 252.818C184.667 280.797 163.995 296.068 163.12 296.703C161.406 297.948 159.427 298.547 157.458 298.547Z" fill="#F9C4B8"/>
<path d="M83.3021 474.745C83.151 474.745 83 474.703 82.8698 474.609C82.5052 474.37 82.4115 473.885 82.651 473.521L97.4792 451.271C97.7135 450.906 98.2031 450.813 98.5625 451.052C98.9219 451.292 99.0208 451.776 98.7812 452.13L83.9479 474.391C83.8021 474.62 83.5521 474.745 83.3021 474.745Z" fill="#36334C"/>
<path d="M115.146 523.427C119.698 496.594 115.073 473.104 105.547 449.516C105.547 449.516 111.073 447.521 126.818 443.078C127.318 442.943 127.812 442.797 128.328 442.656C133.984 441.073 140.865 439.193 149.161 437.005L151.953 436.359L153.479 436.01L190.745 427.406L227.682 492.286L115.146 523.427Z" fill="#39D1DC"/>
<path d="M406.729 517.385L359.396 543.354L373.354 432.495C380.365 440.005 390.313 466.823 397.521 488.333C397.688 488.828 397.849 489.323 398.016 489.812C400.188 496.344 402.094 502.312 403.557 507.016C403.724 507.531 403.875 508.031 404.026 508.505C405.719 513.979 406.729 517.385 406.729 517.385Z" fill="#39D1DC"/>
<path d="M362.896 593.458C362.422 593.438 362.088 593.068 362.109 592.635L366.687 497.057C366.708 496.62 367.068 496.292 367.51 496.307C367.943 496.333 368.271 496.698 368.25 497.13L363.672 592.714C363.651 593.13 363.307 593.458 362.896 593.458Z" fill="#2C2C2D"/>
<path d="M115.146 524.203C114.797 524.203 114.479 523.974 114.385 523.625C114.276 523.208 114.521 522.781 114.943 522.672L172.516 507.245C172.932 507.141 173.365 507.385 173.474 507.802C173.589 508.219 173.333 508.646 172.922 508.755L115.339 524.177C115.276 524.198 115.208 524.203 115.146 524.203Z" fill="#2C2C2D"/>
<path d="M169.661 272.224C169.349 272.224 169.052 272.031 168.932 271.724C168.781 271.318 168.979 270.865 169.385 270.708C169.516 270.661 182.219 265.87 192.214 264.125C202.151 262.396 204.953 263.188 205.245 263.281C205.651 263.422 205.87 263.865 205.734 264.276C205.599 264.677 205.156 264.901 204.745 264.766C204.729 264.766 202.021 264.005 192.479 265.667C182.635 267.375 170.068 272.13 169.943 272.177C169.849 272.208 169.755 272.224 169.661 272.224Z" fill="#36334C"/>
<path d="M243.271 659.677C242.396 659.677 241.521 659.339 240.859 658.672C234.219 651.943 214.698 634.187 204.281 632.839C185.536 630.406 173.427 637.87 161.724 645.083C154.495 649.542 147.667 653.75 139.516 655.755C138.651 655.969 137.776 656.203 136.896 656.437C126.667 659.167 113.922 662.562 95.1354 640.958C93.9115 639.542 94.0625 637.406 95.474 636.172C96.8854 634.948 99.0208 635.094 100.25 636.51C116.26 654.922 125.438 652.479 135.156 649.891C136.078 649.641 136.99 649.401 137.901 649.177C145.026 647.422 151.411 643.484 158.167 639.318C170.286 631.849 184.021 623.38 205.151 626.12C219.755 628.016 243.068 651.266 245.677 653.906C246.995 655.24 246.979 657.38 245.646 658.698C244.99 659.349 244.125 659.677 243.271 659.677Z" fill="#E8EDFD"/>
<path d="M240.109 675.609H83.5208V667.755H240.109V675.609Z" fill="#FB7682"/>
<path d="M249.156 667.755H85.6979V654.224H249.156V667.755Z" fill="#E8EDFD"/>
<path d="M148.292 660.672H87.8802C87.4479 660.672 87.0989 660.323 87.0989 659.891C87.0989 659.458 87.4479 659.109 87.8802 659.109H148.292C148.719 659.109 149.073 659.458 149.073 659.891C149.073 660.323 148.719 660.672 148.292 660.672Z" fill="#93A5F4"/>
<path d="M168.135 665.474H110.125C109.693 665.474 109.344 665.125 109.344 664.693C109.344 664.255 109.693 663.911 110.125 663.911H168.135C168.568 663.911 168.917 664.255 168.917 664.693C168.917 665.125 168.568 665.474 168.135 665.474Z" fill="#93A5F4"/>
<path d="M253.953 659.464C253.094 659.464 252.24 659.135 251.578 658.479C250.245 657.167 250.234 655.021 251.547 653.693C254.135 651.068 277.25 628.016 291.854 626.12C312.99 623.375 326.719 631.849 338.839 639.318C345.599 643.484 351.984 647.422 359.104 649.177C360.016 649.401 360.927 649.641 361.849 649.891C371.562 652.474 380.74 654.922 396.755 636.51C397.984 635.094 400.125 634.948 401.536 636.172C402.943 637.406 403.094 639.542 401.87 640.958C383.083 662.562 370.344 659.161 360.104 656.437C359.229 656.203 358.359 655.969 357.49 655.755C349.333 653.75 342.51 649.542 335.281 645.083C323.578 637.87 311.469 630.406 292.724 632.839C282.297 634.193 262.938 651.786 256.365 658.453C255.703 659.12 254.828 659.464 253.953 659.464Z" fill="#E8EDFD"/>
<path d="M257.443 675.609H413.484V667.755H257.443V675.609Z" fill="#FB7682"/>
<path d="M248.901 667.755H411.307V654.224H248.901V667.755Z" fill="#E8EDFD"/>
<path d="M409.125 660.672H348.714C348.286 660.672 347.932 660.323 347.932 659.891C347.932 659.458 348.286 659.109 348.714 659.109H409.125C409.557 659.109 409.911 659.458 409.911 659.891C409.911 660.323 409.557 660.672 409.125 660.672Z" fill="#93A5F4"/>
<path d="M386.88 665.474H328.87C328.437 665.474 328.089 665.125 328.089 664.693C328.089 664.255 328.437 663.911 328.87 663.911H386.88C387.312 663.911 387.667 664.255 387.667 664.693C387.667 665.125 387.312 665.474 386.88 665.474Z" fill="#93A5F4"/>
<path d="M240.109 675.609C249.266 660.328 257.443 675.609 257.443 675.609V667.755H240.109V675.609Z" fill="#FB7682"/>
<path d="M258.75 675.661H238.911V673.266H258.75V675.661Z" fill="#FB7682"/>
<path d="M290.839 640.339H290.01C283.281 640.339 277.833 645.781 277.833 652.516V663.51C277.833 670.234 283.281 675.688 290.01 675.688H455.141V640.339H290.839Z" fill="#433FAB"/>
<path d="M451.979 645.104C450.688 645.104 449.641 644.057 449.635 642.76C449.635 641.469 450.688 640.411 451.974 640.411L485.234 640.359C486.531 640.359 487.583 641.411 487.589 642.703C487.589 643.995 486.536 645.052 485.24 645.052L451.984 645.104H451.979Z" fill="#433FAB"/>
<path d="M485.891 675.719H451.438C450.141 675.719 449.094 674.667 449.094 673.37C449.094 672.073 450.141 671.026 451.438 671.026H485.891C487.188 671.026 488.234 672.073 488.234 673.37C488.234 674.667 487.188 675.719 485.891 675.719Z" fill="#433FAB"/>
<path d="M315.771 675.688H301.125C297.469 664.193 297.458 651.839 301.109 640.339H315.745C310.896 651.625 310.901 664.406 315.771 675.688Z" fill="#FCD105"/>
<path d="M294.401 675.688C289.526 664.406 289.521 651.625 294.375 640.339H290.839C286.344 651.688 286.354 664.339 290.865 675.688H294.401Z" fill="#FCD105"/>
<path d="M429.76 675.688H415.115C411.458 664.193 411.448 651.839 415.094 640.339H429.734C424.885 651.625 424.891 664.406 429.76 675.688Z" fill="#FCD105"/>
<path d="M408.391 675.688C403.516 664.406 403.516 651.625 408.365 640.339H404.823C400.328 651.688 400.339 664.339 404.854 675.688H408.391Z" fill="#FCD105"/>
<path d="M485.375 671.016H461.688C455.062 671.016 449.688 665.646 449.688 659.021V657.052C449.688 650.422 455.062 645.052 461.688 645.052H485.375V671.016Z" fill="#E8EDFD"/>
<path d="M483.568 652.818H458.562C458.13 652.818 457.781 652.464 457.781 652.031C457.781 651.599 458.13 651.25 458.562 651.25H483.568C484 651.25 484.344 651.599 484.344 652.031C484.344 652.464 484 652.818 483.568 652.818Z" fill="#433FAB"/>
<path d="M483.276 659.219H471.062C470.635 659.219 470.281 658.865 470.281 658.432C470.281 658 470.635 657.656 471.062 657.656H483.276C483.708 657.656 484.057 658 484.057 658.432C484.057 658.865 483.708 659.219 483.276 659.219Z" fill="#433FAB"/>
<path d="M466.698 638.188H298.557V612.656H466.698V638.188Z" fill="#E8EDFD"/>
<path d="M470.073 640.536H296.589C295.297 640.536 294.25 639.484 294.25 638.188C294.25 636.896 295.297 635.844 296.589 635.844H467.667C472.927 628.047 472.932 620.469 467.672 612.729H296.589C295.297 612.729 294.25 611.688 294.25 610.385C294.25 609.094 295.297 608.042 296.589 608.042H470.068L470.771 609C478.198 619.104 478.198 629.385 470.776 639.573L470.073 640.536Z" fill="#36334C"/>
<path d="M381.505 635.615C381.073 635.615 380.719 635.26 380.719 634.828V613.589C380.719 613.156 381.073 612.807 381.505 612.807C381.938 612.807 382.281 613.156 382.281 613.589V634.828C382.281 635.26 381.938 635.615 381.505 635.615Z" fill="#433FAB"/>
<path d="M333.229 617.031H300.516C300.083 617.031 299.734 616.677 299.734 616.245C299.734 615.812 300.083 615.458 300.516 615.458H333.229C333.661 615.458 334.016 615.812 334.016 616.245C334.016 616.677 333.661 617.031 333.229 617.031Z" fill="#433FAB"/>
<path d="M339.776 620.953H307.932C307.5 620.953 307.151 620.604 307.151 620.172C307.151 619.745 307.5 619.391 307.932 619.391H339.776C340.208 619.391 340.557 619.745 340.557 620.172C340.557 620.604 340.208 620.953 339.776 620.953Z" fill="#433FAB"/>
<path d="M474.568 577.297C472.234 594.651 460.01 612.464 446.349 606.057C433.552 613.047 420.266 593.641 417.667 576.651C415.068 559.651 422.505 538.844 446.349 549.906C472.807 539.135 476.906 559.948 474.568 577.297Z" fill="#FB7682"/>
<path d="M469.031 560.271C470.589 565.172 469.25 569.974 466.036 570.995C462.823 572.021 458.953 568.88 457.396 563.974C455.833 559.078 457.177 554.271 460.391 553.255C463.604 552.229 467.474 555.37 469.031 560.271Z" fill="#FDFCFB"/>
<path d="M470.771 576.089C470.771 577.781 469.599 579.146 468.156 579.146C466.714 579.146 465.536 577.781 465.536 576.089C465.536 574.401 466.714 573.031 468.156 573.031C469.599 573.031 470.771 574.401 470.771 576.089Z" fill="#FDFCFB"/>
<path d="M446.344 552.25C445.229 552.25 444.234 551.448 444.042 550.302C442.818 543.323 443.974 528.693 457.089 523.292C458.281 522.797 459.656 523.37 460.146 524.568C460.641 525.766 460.073 527.141 458.87 527.63C445.932 532.964 448.63 549.333 448.656 549.5C448.88 550.776 448.026 551.99 446.75 552.214C446.615 552.24 446.479 552.25 446.344 552.25Z" fill="#36334C"/>
<path d="M441.49 520.693C447.078 526.849 445.63 537.271 445.63 537.271C445.63 537.271 435.125 537.703 429.536 531.542C423.953 525.385 425.401 514.964 425.401 514.964C425.401 514.964 435.906 514.531 441.49 520.693Z" fill="#36334C"/>
<path d="M265.182 287.286C264.833 287.286 264.51 287.042 264.427 286.682C264.401 286.562 261.771 274.812 273.01 271.135C273.422 271.005 273.865 271.229 274 271.641C274.13 272.047 273.906 272.49 273.495 272.625C263.635 275.844 265.849 285.896 265.948 286.323C266.047 286.745 265.786 287.161 265.365 287.266C265.307 287.276 265.245 287.286 265.182 287.286Z" fill="#2C2C2D"/>
<path d="M325.38 244.729C325.151 244.729 324.922 244.625 324.766 244.432C324.5 244.089 324.557 243.599 324.896 243.333C328.156 240.771 335.599 241.396 335.917 241.422C336.349 241.458 336.661 241.839 336.625 242.271C336.589 242.703 336.208 243.016 335.776 242.979C335.708 242.974 328.635 242.38 325.859 244.563C325.719 244.677 325.552 244.729 325.38 244.729Z" fill="#2C2C2D"/>
<path d="M208.901 125.224C208.594 125.224 208.292 125.193 207.99 125.115C202.75 123.807 193.255 118.359 194.786 107.104C195.365 102.891 197.109 99.1302 198.807 95.4948C202.104 88.4115 203.625 84.5104 199.271 80C193.542 74.0625 182.698 73.3386 175.104 78.3854C167.88 83.1927 166.115 91.5 170.26 101.188C171.078 103.083 170.193 105.286 168.292 106.104C166.391 106.917 164.193 106.036 163.375 104.135C160.427 97.2552 159.776 90.8073 161.427 84.9688C162.911 79.7344 166.208 75.3073 170.958 72.1407C181.604 65.0729 196.401 66.2344 204.656 74.7917C212.786 83.2188 208.797 91.7761 205.594 98.6615C204.073 101.938 202.63 105.031 202.208 108.12C201.219 115.38 208.938 117.62 209.823 117.849C211.823 118.354 213.042 120.385 212.531 122.396C212.115 124.094 210.578 125.224 208.901 125.224Z" fill="#FD809E"/>
<path d="M229.682 129.901C229.682 132.911 227.25 135.349 224.24 135.349C221.229 135.349 218.797 132.911 218.797 129.901C218.797 126.896 221.229 124.453 224.24 124.453C227.25 124.453 229.682 126.896 229.682 129.901Z" fill="#FD809E"/>
<path d="M333.63 107.552C333.615 107.333 333.625 107.109 333.661 106.88C334.323 103 337.766 95.7812 346.031 96.276C349.125 96.4583 351.958 97.526 354.698 98.5624C360.031 100.573 362.958 101.463 365.995 98.0468C370 93.5364 369.927 85.6093 365.833 80.3541C361.937 75.3593 355.802 74.526 348.984 78.0833C347.646 78.7812 345.995 78.2656 345.297 76.927C344.604 75.5833 345.12 73.9322 346.458 73.2291C351.297 70.7083 355.953 69.8749 360.292 70.7604C364.177 71.552 367.583 73.7031 370.141 76.9895C375.875 84.3489 375.849 95.1926 370.083 101.677C364.401 108.062 357.953 105.635 352.771 103.682C350.307 102.75 347.974 101.875 345.708 101.734C340.37 101.417 339.167 107.161 339.042 107.818C338.792 109.307 337.38 110.297 335.896 110.047C334.63 109.828 333.719 108.776 333.63 107.552Z" fill="#FD809E"/>
<path d="M331.38 122.948C329.187 123.115 327.281 121.479 327.115 119.286C326.953 117.094 328.589 115.182 330.776 115.021C332.964 114.854 334.875 116.49 335.042 118.682C335.208 120.875 333.573 122.781 331.38 122.948Z" fill="#FD809E"/>
<path d="M271.693 85.6042C271.437 85.2865 271.224 84.9479 271.052 84.5677C268.057 78.0886 265.797 63.7865 278.646 56.0417C283.453 53.1406 288.776 51.8281 293.922 50.5625C303.937 48.0938 309.214 46.4167 310.25 38.1979C311.615 27.375 303.375 15.6042 291.885 11.9636C280.948 8.50002 270.937 13.5677 264.411 25.8646C263.13 28.2813 260.13 29.1979 257.719 27.9167C255.302 26.6302 254.385 23.6354 255.672 21.2188C260.307 12.4844 266.396 6.46356 273.781 3.33335C280.391 0.520852 287.682 0.24481 294.87 2.52085C310.964 7.61981 322.031 23.8386 320.073 39.4375C318.141 54.7917 306.021 57.7761 296.292 60.1823C291.656 61.3229 287.281 62.4063 283.75 64.5261C275.458 69.5313 279.552 79.3386 280.047 80.4427C281.193 82.9219 280.104 85.8542 277.62 87C275.521 87.9688 273.083 87.3281 271.693 85.6042Z" fill="#FD809E"/>
<path d="M284.109 110.891C281.01 113.38 276.479 112.896 273.99 109.792C271.5 106.698 271.99 102.161 275.083 99.6719C278.182 97.1771 282.708 97.6667 285.203 100.766C287.693 103.865 287.203 108.396 284.109 110.891Z" fill="#FD809E"/>
<path d="M271.948 526.026C266.964 526.026 262.911 530.078 262.911 535.063C262.911 540.047 266.964 544.104 271.948 544.104C276.927 544.104 280.979 540.047 280.979 535.063C280.979 530.078 276.927 526.026 271.948 526.026ZM271.948 545.667C266.104 545.667 261.349 540.906 261.349 535.063C261.349 529.219 266.104 524.464 271.948 524.464C277.786 524.464 282.542 529.219 282.542 535.063C282.542 540.906 277.786 545.667 271.948 545.667Z" fill="#E8EDFD"/>
<path d="M323.635 457.286C316.854 457.286 311.333 462.802 311.333 469.594C311.333 476.385 316.854 481.906 323.635 481.906C330.422 481.906 335.938 476.385 335.938 469.594C335.938 462.802 330.422 457.286 323.635 457.286ZM323.635 483.469C315.99 483.469 309.771 477.245 309.771 469.594C309.771 461.943 315.99 455.724 323.635 455.724C331.281 455.724 337.505 461.943 337.505 469.594C337.505 477.245 331.281 483.469 323.635 483.469Z" fill="#E8EDFD"/>
<path d="M153.479 436.01L151.953 436.359C152.042 436.953 152.089 437.557 152.089 438.172C152.089 444.958 146.573 450.479 139.786 450.479C134.578 450.479 130.12 447.234 128.328 442.656C127.812 442.797 127.318 442.943 126.818 443.078C128.797 448.312 133.859 452.047 139.786 452.047C147.427 452.047 153.651 445.818 153.651 438.172C153.651 437.437 153.589 436.714 153.479 436.01Z" fill="#E8EDFD"/>
<path d="M182.964 562.688C177.266 562.688 172.625 567.328 172.625 573.031C172.625 578.74 177.266 583.385 182.964 583.385C188.667 583.385 193.312 578.74 193.312 573.031C193.312 567.328 188.667 562.688 182.964 562.688ZM182.964 584.948C176.401 584.948 171.062 579.604 171.062 573.031C171.062 566.469 176.401 561.125 182.964 561.125C189.531 561.125 194.87 566.469 194.87 573.031C194.87 579.604 189.531 584.948 182.964 584.948Z" fill="#E8EDFD"/>
<path d="M333.448 558.104C325.583 558.104 319.182 564.51 319.182 572.38C319.182 580.255 325.583 586.656 333.448 586.656C341.312 586.656 347.714 580.255 347.714 572.38C347.714 564.51 341.312 558.104 333.448 558.104ZM333.448 588.219C324.719 588.219 317.62 581.115 317.62 572.38C317.62 563.646 324.719 556.536 333.448 556.536C342.177 556.536 349.276 563.646 349.276 572.38C349.276 581.115 342.177 588.219 333.448 588.219Z" fill="#E8EDFD"/>
<path d="M183.62 438.948C178.641 438.948 174.589 443.01 174.589 447.99C174.589 452.974 178.641 457.026 183.62 457.026C188.599 457.026 192.656 452.974 192.656 447.99C192.656 443.01 188.599 438.948 183.62 438.948ZM183.62 458.589C177.781 458.589 173.026 453.839 173.026 447.99C173.026 442.146 177.781 437.385 183.62 437.385C189.464 437.385 194.219 442.146 194.219 447.99C194.219 453.839 189.464 458.589 183.62 458.589Z" fill="#E8EDFD"/>
<path d="M140.437 475.615C136.542 475.615 133.37 478.786 133.37 482.688C133.37 486.589 136.542 489.76 140.437 489.76C144.339 489.76 147.51 486.589 147.51 482.688C147.51 478.786 144.339 475.615 140.437 475.615ZM140.437 491.328C135.677 491.328 131.807 487.453 131.807 482.688C131.807 477.927 135.677 474.052 140.437 474.052C145.198 474.052 149.073 477.927 149.073 482.688C149.073 487.453 145.198 491.328 140.437 491.328Z" fill="#E8EDFD"/>
<path d="M209.141 488.708C204.156 488.708 200.104 492.766 200.104 497.745C200.104 502.729 204.156 506.781 209.141 506.781C214.115 506.781 218.172 502.729 218.172 497.745C218.172 492.766 214.115 488.708 209.141 488.708ZM209.141 508.349C203.292 508.349 198.542 503.594 198.542 497.745C198.542 491.901 203.292 487.141 209.141 487.141C214.979 487.141 219.734 491.901 219.734 497.745C219.734 503.594 214.979 508.349 209.141 508.349Z" fill="#E8EDFD"/>
<path d="M403.557 507.016C402.698 507.297 401.786 507.438 400.839 507.438C395.859 507.438 391.807 503.385 391.807 498.401C391.807 494.401 394.417 491.005 398.016 489.813C397.849 489.323 397.687 488.828 397.521 488.333C393.297 489.724 390.245 493.714 390.245 498.401C390.245 504.245 394.995 509.005 400.839 509.005C401.948 509.005 403.026 508.833 404.026 508.505C403.875 508.031 403.724 507.531 403.557 507.016Z" fill="#E8EDFD"/>
<path d="M241.849 604.589C236.51 604.589 232.161 608.932 232.161 614.281C232.161 619.625 236.51 623.974 241.849 623.974C247.193 623.974 251.542 619.625 251.542 614.281C251.542 608.932 247.193 604.589 241.849 604.589ZM241.849 625.536C235.646 625.536 230.599 620.49 230.599 614.281C230.599 608.073 235.646 603.026 241.849 603.026C248.052 603.026 253.099 608.073 253.099 614.281C253.099 620.49 248.052 625.536 241.849 625.536Z" fill="#E8EDFD"/>
<path d="M365.51 435.682C362.333 435.682 359.745 438.26 359.745 441.443C359.745 444.625 362.333 447.208 365.51 447.208C368.687 447.208 371.271 444.625 371.271 441.443C371.271 438.26 368.687 435.682 365.51 435.682ZM365.51 448.771C361.469 448.771 358.182 445.484 358.182 441.443C358.182 437.401 361.469 434.115 365.51 434.115C369.547 434.115 372.833 437.401 372.833 441.443C372.833 445.484 369.547 448.771 365.51 448.771Z" fill="#E8EDFD"/>
<path d="M343.26 513.589C337.922 513.589 333.578 517.932 333.578 523.276C333.578 528.625 337.922 532.974 343.26 532.974C348.604 532.974 352.948 528.625 352.948 523.276C352.948 517.932 348.604 513.589 343.26 513.589ZM343.26 534.536C337.057 534.536 332.016 529.484 332.016 523.276C332.016 517.073 337.057 512.021 343.26 512.021C349.469 512.021 354.51 517.073 354.51 523.276C354.51 529.484 349.469 534.536 343.26 534.536Z" fill="#E8EDFD"/>
<path d="M258.865 459.245C254.964 459.245 251.792 462.422 251.792 466.323C251.792 470.224 254.964 473.396 258.865 473.396C262.76 473.396 265.927 470.224 265.927 466.323C265.927 462.422 262.76 459.245 258.865 459.245ZM258.865 474.964C254.104 474.964 250.229 471.083 250.229 466.323C250.229 461.562 254.104 457.682 258.865 457.682C263.62 457.682 267.495 461.562 267.495 466.323C267.495 471.083 263.62 474.964 258.865 474.964Z" fill="#E8EDFD"/>
</svg>
