<svg width="703" height="938" viewBox="0 0 703 938" fill="none" xmlns="http://www.w3.org/2000/svg">
<path d="M433.974 394.453C433.974 394.453 356.85 423.822 351.34 432.213C345.829 440.603 332.21 509.306 329.67 514.55C327.129 519.8 312.17 539.206 312.17 540.25C312.17 541.301 323.126 544.706 323.126 544.706L370.404 685.525C370.404 685.525 365.593 722.233 367.733 724.329C369.866 726.432 641.243 724.329 641.243 724.329L685.042 578.01L701.61 575.914C701.61 575.914 679.175 447.949 666.88 431.691C654.593 415.432 620.41 406.52 613.997 403.894C607.591 401.269 531.195 364.561 531.195 364.561L433.974 394.453Z" fill="#39D1DC"/>
<path d="M396.042 552.839C396.042 552.052 391.674 480.116 387.671 464.379C383.667 448.65 383.754 514.814 381.622 514.292C379.481 513.77 373.338 470.502 366.663 475.745C359.98 480.988 373.068 551.787 371.736 554.148C370.404 556.508 396.042 552.839 396.042 552.839Z" fill="#38C0CA"/>
<path d="M556.476 640.598C549 639.546 447.855 617.873 429.337 625.562C410.819 633.252 474.57 657.729 480.262 662.972C485.962 668.215 422.218 659.138 417.588 666.126C412.959 673.107 625.214 704.23 623.074 693.386C620.941 682.549 556.476 640.598 556.476 640.598Z" fill="#38C0CA"/>
<path d="M594.59 579.755H591.023C591.023 579.755 579.537 488.592 576.873 482.562C574.194 476.532 572.061 541.823 572.061 541.037C572.061 540.25 566.187 512.196 561.644 513.241C557.102 514.292 563.515 596.808 563.515 596.979C563.515 597.151 598.776 611.836 603.58 608.166C608.392 604.497 594.59 579.755 594.59 579.755Z" fill="#38C0CA"/>
<path d="M421.148 380.469C421.148 380.469 431.295 404.946 431.295 407.392C431.295 409.839 423.368 421.548 436.15 422.95C448.933 424.345 529.063 385.19 531.195 364.561C528.524 361.764 518.195 355.82 518.195 355.82L507.159 315.614C507.159 315.614 510.18 243.062 497.718 233.627C485.256 224.185 445.49 261.166 445.49 261.166L421.148 380.469Z" fill="#F89F7A"/>
<path d="M443.182 329.819C442.25 329.555 376.14 330.606 375.209 338.474C374.277 346.335 374.946 376.492 416.074 371.513C457.209 366.528 443.182 329.819 443.182 329.819Z" fill="#D44858"/>
<path d="M391.769 336.243C391.325 336.536 391.23 357.222 433.974 339.039C433.974 324.354 405.301 327.151 391.769 336.243Z" fill="white"/>
<path d="M418.389 364.21C395.947 369.368 385.727 353.545 386.702 338.517C386.702 338.517 405.032 340.005 426.221 332.745C430.32 331.264 440.824 359.053 418.389 364.21ZM509.824 200.152C494.865 186.254 400.584 169.995 371.736 182.055C342.889 194.122 361.582 216.932 361.582 216.932C361.582 216.932 370.266 274.849 352.701 281.158C352.701 281.158 337.873 363.688 351.733 375.405C365.593 387.114 466.381 394.281 475.99 372.078C485.605 349.876 473.857 269.642 473.857 266.838C473.857 264.041 485.962 248.484 494.69 264.742C503.418 281.001 488.459 305.957 482.577 306.508C485.074 321.036 500.033 331.872 501.634 330.649C503.236 329.426 503.418 320.156 503.949 322.08C504.481 324.004 509.998 331.872 512.495 330.821C514.992 329.776 519.439 312.996 517.307 305.65C525.496 282.052 536 202.77 509.824 200.152Z" fill="#78483F"/>
<path d="M458.01 235.287C458.01 235.287 458.541 321.3 456.408 322.08C418.214 308.182 353.575 318.41 351.697 315.528C349.833 312.645 355.438 227.426 361.582 216.932C366.124 231.353 391.769 239.571 393.013 237.998C394.258 236.424 393.188 227.504 393.188 227.504C393.188 227.504 420.078 241.145 421.861 238.177C423.637 235.201 422.043 226.46 422.043 226.46C422.043 226.46 437.708 240.272 440.736 238.52C443.764 236.775 442.694 230.831 442.694 230.831C442.694 230.831 449.464 239.221 458.01 235.287Z" fill="#F89F7A"/>
<path d="M353.975 248.133C353.975 248.133 373.338 246.295 375.208 249.972C377.079 253.641 372.268 259.013 367.063 259.807C361.858 260.587 354.776 261.509 353.043 258.233C351.303 254.95 351.005 248.355 353.975 248.133Z" fill="#78483F"/>
<path d="M437.977 249.714C437.497 249.664 403.787 247.611 401.516 249.714C399.245 251.81 403.386 258.362 409.799 259.807C416.205 261.252 432.904 262.253 436.507 259.02C440.11 255.78 439.441 249.864 437.977 249.714Z" fill="#78483F"/>
<path d="M393.305 300.378C390.946 299.892 382.997 300.671 383.39 297.238C383.39 296.222 383.383 295.206 383.354 294.191C383.296 289.32 383.194 284.449 383.187 279.577C383.165 270.379 383.332 261.245 381.687 252.168C381.447 250.859 379.569 251.295 379.474 252.461C378.47 264.571 378.601 276.816 378.28 288.969C378.186 292.603 376.817 299.198 379.147 302.352C381.563 305.592 387.991 305.671 391.609 306.422C395.612 307.266 397.33 301.208 393.305 300.378Z" fill="#C37164"/>
<path d="M367.179 280.636C366.888 279.227 365.28 278.347 363.918 278.547C362.361 278.776 361.509 279.928 361.341 281.409C361.138 283.204 361.312 285.049 361.371 286.845C361.407 288.097 362.317 289.642 363.707 289.863C364.333 289.963 364.785 290.006 365.403 289.863C366.699 289.577 367.82 288.161 367.747 286.845C367.623 284.778 367.594 282.675 367.179 280.636Z" fill="#3A3B3D"/>
<path d="M424.511 280.636C424.227 279.227 422.618 278.347 421.257 278.547C419.692 278.776 418.848 279.928 418.68 281.409C418.476 283.204 418.651 285.049 418.709 286.845C418.746 288.097 419.663 289.642 421.053 289.863C421.672 289.963 422.116 290.006 422.742 289.863C424.038 289.577 425.159 288.161 425.086 286.845C424.962 284.778 424.933 282.675 424.511 280.636Z" fill="#3A3B3D"/>
<path d="M483.975 266.295C480.081 270.379 477.788 276.173 478.566 281.831C478.828 283.655 479.331 285.25 480.794 286.451C482.235 287.639 482.475 287.109 483.138 289.126C483.953 291.637 482.344 294.756 481.347 297.002C480.656 298.525 482.628 299.698 483.64 298.318C485.867 295.242 488.917 289.506 487.149 285.607C486.239 283.604 484.084 282.718 483.786 280.185C483.334 276.359 486.093 272.417 488.321 269.592C490.25 267.139 486.093 264.077 483.975 266.295Z" fill="#C37164"/>
<path d="M370.404 556.508L323.125 544.706C323.125 544.706 286.751 661.334 289.044 666.09C314.842 668.479 370.404 556.508 370.404 556.508Z" fill="#C37164"/>
<path d="M454.982 532.911C454.982 532.911 460.674 552.66 465.842 556.158C471.011 559.656 481.34 559.827 481.34 559.827C481.34 559.827 572.687 724.858 663.86 723.807C683.091 722.062 695.728 633.252 685.042 578.01C650.502 582.209 594.59 579.755 594.59 579.755L595.296 594.447C595.296 594.447 512.677 545.493 509.824 540.25C506.977 535.007 484.186 471.196 484.186 471.196C484.186 471.196 435.393 455.288 422.043 480.817C408.686 506.338 417.232 533.955 454.982 532.911Z" fill="#F89F7A"/>
<path d="M422.043 531.688C422.043 531.688 442.52 539.728 454.982 532.904C439.135 528.712 436.289 521.896 438.509 519.099C440.736 516.302 472.43 512.103 474.745 508.083C477.06 504.063 464.598 496.374 464.598 496.374C464.598 496.374 486.319 487.283 486.319 483.263C486.319 479.243 475.283 473.993 475.283 473.993L484.193 471.196C484.193 471.196 479.556 445.152 456.226 448.822C432.904 452.491 422.043 531.688 422.043 531.688Z" fill="#C37164"/>
<path d="M406.189 544.449C406.189 544.449 432.19 538.154 429.337 517.525C450.709 510.53 471.542 510.007 471.36 505.809C471.185 501.617 454.625 496.374 453.737 496.374C452.849 496.374 484.004 490.251 483.298 483.263C482.585 476.267 452.31 471.196 452.31 471.196C452.31 471.196 484.717 469.1 484.186 464.029C483.647 458.965 458.367 453.02 458.367 453.02C458.367 453.02 484.361 452.319 482.941 445.331C481.515 438.336 421.148 433.085 407.616 447.076C394.084 461.06 382.153 525.565 379.656 531.86C364.166 553.712 300.778 639.546 290.092 663.322C279.406 687.098 305.808 725.259 329.67 725.259C353.531 725.259 375.209 687.792 383.754 663.322C392.3 638.845 406.189 544.449 406.189 544.449Z" fill="#F89F7A"/>
<path d="M595.296 594.447C595.296 594.447 653.523 617.172 657.083 620.67C669.909 618.045 671.889 589.04 594.947 587.28C594.962 587.459 595.296 594.447 595.296 594.447Z" fill="#C37164"/>
<path d="M177.351 520.951L8.54583 539.835C8.54583 539.835 -0.00728035 539.835 11.7487 609.061C23.4974 678.293 34.984 725.259 34.984 725.259H188.743L177.351 520.951Z" fill="#2E3439"/>
<path d="M338.281 725.259H188.743C188.743 725.259 162.036 527.947 177.351 520.951L206.556 701.368C206.556 701.368 320.156 706.611 327.282 706.962C334.408 707.305 338.281 725.259 338.281 725.259Z" fill="#3F474E"/>
<path d="M70.2229 612.852C71.009 619.082 75.5949 623.652 80.4793 623.059C85.3564 622.465 88.6757 616.936 87.8896 610.706C87.1107 604.483 82.5175 599.912 77.6331 600.506C72.756 601.099 69.4367 606.629 70.2229 612.852Z" fill="#97B0B6"/>
<path d="M89.1852 381.313C89.1852 331.55 139.252 298.69 194.421 298.69C249.591 298.69 294.314 339.032 294.314 388.795C294.314 438.557 249.591 478.9 194.421 478.9C192.31 478.9 190.199 478.821 188.103 478.678C180.802 489.042 165.035 508.985 165.035 508.985L146.735 466.897C113.418 449.601 89.1852 415.933 89.1852 381.313Z" fill="#69C863"/>
<path d="M212.401 336.586C199.313 327.988 183.007 329.676 169.876 337.18C159.233 343.252 140.118 352.68 150.688 365.941C152.522 368.259 155.361 371.192 159.714 369.661C167.998 366.764 172.03 357.451 179.928 354.068C186.844 351.106 194.458 349.912 201.053 354.196C205.464 357.057 211.142 364.024 207.648 369.346C205.908 371.985 202.028 374.839 199.08 375.984C194.894 377.608 190.214 376.292 185.89 376.663C178.866 377.271 174.432 382.679 175.859 389.589C177.038 395.297 178.065 401.033 178.931 406.799C179.768 412.356 186.938 415.425 191.968 414.066C198.046 412.428 200.216 406.841 199.378 401.262C199.102 399.424 198.782 397.6 198.454 395.776C199.924 395.726 201.387 395.569 202.88 395.318C206.505 394.703 210.05 393.323 213.202 391.456C219.819 387.536 225.809 381.921 228.408 374.625C233.569 360.133 224.55 344.561 212.401 336.586Z" fill="white"/>
<path d="M192.128 421.777C178.756 421.777 178.734 442.184 192.128 442.184C205.5 442.184 205.522 421.777 192.128 421.777Z" fill="white"/>
</svg>
