<svg xmlns="http://www.w3.org/2000/svg" xmlns:xlink="http://www.w3.org/1999/xlink" width="60" zoomAndPan="magnify" viewBox="0 0 45 44.999999" height="60" preserveAspectRatio="xMidYMid meet" version="1.0"><defs><clipPath id="186d342412"><path d="M 1 0.414062 L 43.742188 0.414062 L 43.742188 24 L 1 24 Z M 1 0.414062 " clip-rule="nonzero"/></clipPath><clipPath id="6389b817f9"><path d="M 1 17 L 43.742188 17 L 43.742188 31 L 1 31 Z M 1 17 " clip-rule="nonzero"/></clipPath><clipPath id="3b9aa56685"><path d="M 1 24 L 43.742188 24 L 43.742188 38 L 1 38 Z M 1 24 " clip-rule="nonzero"/></clipPath><clipPath id="1b7db150c0"><path d="M 1 31 L 43.742188 31 L 43.742188 44.664062 L 1 44.664062 Z M 1 31 " clip-rule="nonzero"/></clipPath></defs><g clip-path="url(#186d342412)"><path fill="#5271ff" d="M 2.472656 13.542969 L 21.585938 23.089844 C 21.84375 23.21875 22.121094 23.285156 22.398438 23.285156 C 22.675781 23.285156 22.953125 23.21875 23.210938 23.089844 L 42.324219 13.542969 C 42.945312 13.234375 43.339844 12.59375 43.339844 11.890625 C 43.339844 11.191406 42.945312 10.550781 42.324219 10.238281 L 23.210938 0.691406 C 22.699219 0.4375 22.097656 0.4375 21.585938 0.691406 L 2.472656 10.242188 C 1.847656 10.550781 1.457031 11.191406 1.457031 11.894531 C 1.457031 12.59375 1.851562 13.234375 2.472656 13.542969 Z M 22.398438 4.402344 L 37.390625 11.894531 L 22.398438 19.382812 L 7.40625 11.894531 Z M 22.398438 4.402344 " fill-opacity="1" fill-rule="nonzero"/></g><g clip-path="url(#6389b817f9)"><path fill="#5271ff" d="M 40.699219 17.601562 L 22.398438 26.742188 L 4.097656 17.601562 C 3.191406 17.148438 2.09375 17.523438 1.644531 18.433594 C 1.195312 19.347656 1.566406 20.453125 2.472656 20.90625 L 21.585938 30.453125 C 21.84375 30.582031 22.121094 30.644531 22.398438 30.644531 C 22.675781 30.644531 22.953125 30.582031 23.210938 30.453125 L 42.324219 20.90625 C 43.230469 20.453125 43.601562 19.347656 43.148438 18.433594 C 42.703125 17.523438 41.601562 17.152344 40.699219 17.601562 Z M 40.699219 17.601562 " fill-opacity="1" fill-rule="nonzero"/></g><g clip-path="url(#3b9aa56685)"><path fill="#5271ff" d="M 40.699219 24.617188 L 22.398438 33.761719 L 4.097656 24.617188 C 3.191406 24.167969 2.09375 24.539062 1.644531 25.453125 C 1.195312 26.363281 1.566406 27.46875 2.472656 27.921875 L 21.585938 37.46875 C 21.84375 37.597656 22.121094 37.664062 22.398438 37.664062 C 22.675781 37.664062 22.953125 37.597656 23.210938 37.46875 L 42.324219 27.921875 C 43.230469 27.46875 43.601562 26.363281 43.148438 25.453125 C 42.699219 24.539062 41.601562 24.164062 40.699219 24.617188 Z M 40.699219 24.617188 " fill-opacity="1" fill-rule="nonzero"/></g><g clip-path="url(#1b7db150c0)"><path fill="#5271ff" d="M 40.699219 31.636719 L 22.398438 40.777344 L 4.097656 31.632812 C 3.191406 31.183594 2.09375 31.554688 1.644531 32.46875 C 1.195312 33.378906 1.566406 34.484375 2.472656 34.9375 L 21.585938 44.488281 C 21.84375 44.613281 22.121094 44.679688 22.398438 44.679688 C 22.675781 44.679688 22.953125 44.613281 23.210938 44.484375 L 42.324219 34.9375 C 43.230469 34.488281 43.601562 33.378906 43.148438 32.46875 C 42.703125 31.554688 41.601562 31.179688 40.699219 31.636719 Z M 40.699219 31.636719 " fill-opacity="1" fill-rule="nonzero"/></g></svg>